<svg width="83" height="81" viewBox="0 0 83 81" fill="none" xmlns="http://www.w3.org/2000/svg">
<g clip-path="url(#clip0)">
<path d="M57.8802 30.8087C57.0821 30.8108 56.2865 30.8977 55.5066 31.0678L52.433 23.608L43.1575 1.08934C43.0251 0.768016 42.8007 0.493301 42.5128 0.300053C42.2249 0.106805 41.8863 0.00366211 41.54 0.00366211C41.1937 0.00366211 40.8552 0.106805 40.5672 0.300053C40.2793 0.493301 40.055 0.768016 39.9226 1.08934L29.7995 25.6636L27.4715 31.3142C24.6572 30.4356 21.6127 30.6931 18.9844 32.0321C16.3561 33.371 14.351 35.6858 13.3949 38.4851C12.4388 41.2844 12.6069 44.3477 13.8636 47.0246C15.1202 49.7014 17.3665 51.781 20.1254 52.8218C20.4546 52.9467 20.8193 52.9379 21.1422 52.7974C21.4651 52.6568 21.7207 52.3956 21.8551 52.069L28.8936 34.9825C28.9925 35.05 29.0914 35.1205 29.1903 35.193L51.2018 51.36C52.646 52.418 54.3192 53.1177 56.0844 53.4017C57.8496 53.6856 59.6568 53.5458 61.3579 52.9937C63.059 52.4417 64.6057 51.4931 65.8716 50.2255C67.1375 48.9579 68.0864 47.4073 68.6409 45.7007C69.1953 43.9941 69.3395 42.18 69.0616 40.4066C68.7837 38.6333 68.0915 36.9512 67.0419 35.4981C65.9922 34.0449 64.6149 32.8621 63.0225 32.0461C61.4301 31.2302 59.6679 30.8044 57.8802 30.8037V30.8087ZM19.8871 49.7155C18.0559 48.6761 16.6666 47 15.9811 45.0032C15.2955 43.0063 15.3609 40.8266 16.1652 38.8749C16.9694 36.9232 18.4569 35.3343 20.3471 34.4077C22.2374 33.481 24.4 33.2807 26.4271 33.8445L19.8871 49.7155ZM29.9439 32.4293L33.2796 24.3309L35.8974 17.9754L46.9857 44.8873L30.7924 32.9934C30.5128 32.7901 30.2287 32.6007 29.9399 32.4253L29.9439 32.4293ZM52.8039 49.1634L51.1919 47.9786L37.3641 14.4132L41.5375 4.28393L50.0743 25.0081L60.5356 50.4017C59.2414 50.8255 57.8655 50.9342 56.5212 50.7191C55.1769 50.504 53.9028 49.9711 52.8039 49.1644V49.1634ZM62.9536 49.1514L56.5639 33.6398C57.0035 33.5688 57.4479 33.5316 57.8931 33.5287C59.7084 33.5301 61.4767 34.1081 62.9451 35.1799C64.4135 36.2517 65.5067 37.7623 66.0682 39.4958C66.6298 41.2292 66.6308 43.0966 66.0714 44.8307C65.512 46.5648 64.4207 48.0769 62.9536 49.1505V49.1514Z" fill="#ABABAB"/>
<path d="M6.10191 66.9373L-6.10352e-05 81.0001H2.14701L3.55235 77.6871H10.6888L12.0951 81.0001H14.2224L8.1402 66.9373H6.10191ZM7.11164 69.2512C7.13043 69.2968 7.15026 69.3424 7.17103 69.3891L9.90047 75.8173H4.34152L7.05236 69.3911C7.07214 69.3434 7.09285 69.2968 7.11164 69.2512Z" fill="#ABABAB"/>
<path d="M21.6247 66.9373H19.6468V81.0001H29.2013V79.0913H21.6257L21.6247 66.9373Z" fill="#ABABAB"/>
<path d="M43.8616 67.8928C42.5862 67.1874 41.1391 66.8563 39.6853 66.9373H34.8501V81.0001H36.8281V76.134H39.6853C41.1391 76.2151 42.5863 75.8841 43.8616 75.1788C44.4187 74.7499 44.8701 74.1981 45.1807 73.566C45.4913 72.9339 45.6527 72.2387 45.6527 71.5338C45.6527 70.829 45.4913 70.1335 45.1807 69.5014C44.8701 68.8693 44.4187 68.3175 43.8616 67.8886V67.8928ZM43.655 71.5372C43.655 73.3992 42.4543 74.2293 39.7633 74.2293H36.8281V68.8461H39.7633C40.7226 68.7845 41.6818 68.9678 42.5513 69.3792C42.92 69.5969 43.2196 69.9153 43.415 70.2973C43.6104 70.6794 43.6936 71.1095 43.655 71.5372Z" fill="#ABABAB"/>
<path d="M61.4 72.995H53.6365V66.9373H51.6585V81.0001H53.6365V74.9036H61.4V81.0001H63.3779V66.9373H61.4V72.995Z" fill="#ABABAB"/>
<path d="M76.9177 66.9373H74.8806L68.7776 81.0001H70.9248L72.33 77.6871H79.4674L80.8726 81.0001H83L76.9177 66.9373ZM75.8894 69.2512C75.9082 69.2968 75.9278 69.3424 75.9486 69.3891L78.6781 75.8173H73.1193L75.829 69.3911C75.8508 69.3434 75.8696 69.2968 75.8894 69.2512Z" fill="#ABABAB"/>
</g>
<defs>
<clipPath id="clip0">
<rect width="83" height="81" fill="white"/>
</clipPath>
</defs>
</svg>
