<svg xmlns="http://www.w3.org/2000/svg" width="108.601" height="90.35" viewBox="0 0 108.601 90.35"><g transform="translate(0 26.594)"><path d="M35.323,44.1a.842.842,0,1,0,.218,1.169A.841.841,0,0,0,35.323,44.1Z" transform="translate(-28.885 -43.957)" fill="#2fc77a"/><path d="M35.593,45.88a1.749,1.749,0,1,0,.726,2.365A1.75,1.75,0,0,0,35.593,45.88Z" transform="translate(-30.926 -40.39)" fill="#2fc77a"/><path d="M35.976,48.3a2.657,2.657,0,1,0,1.495,3.447A2.656,2.656,0,0,0,35.976,48.3Z" transform="translate(-32.342 -35.329)" fill="#2fc77a"/><path d="M36.989,51.243a3.564,3.564,0,1,0,2.5,4.379A3.565,3.565,0,0,0,36.989,51.243Z" transform="translate(-32.052 -29.103)" fill="#2fc77a"/><path d="M42.513,59.975a4.47,4.47,0,1,0-5.129,3.7A4.469,4.469,0,0,0,42.513,59.975Z" transform="translate(-29.673 -21.484)" fill="#2fc77a"/><path d="M45.388,65.05a.84.84,0,1,0-.9.772A.843.843,0,0,0,45.388,65.05Z" transform="translate(-8.754 -2.068)" fill="#2fc77a" opacity="0.2"/><path d="M43.487,63.158A1.75,1.75,0,1,0,44.88,65.2,1.748,1.748,0,0,0,43.487,63.158Z" transform="translate(-13.523 -4.178)" fill="#2fc77a" opacity="0.4"/><path d="M42.177,61.544a2.657,2.657,0,1,0,1.756,3.321A2.66,2.66,0,0,0,42.177,61.544Z" transform="translate(-19.071 -7.706)" fill="#2fc77a" opacity="0.6"/><path d="M41.121,59.025a3.565,3.565,0,1,0,1.857,4.687A3.567,3.567,0,0,0,41.121,59.025Z" transform="translate(-24.458 -13.299)" fill="#2fc77a" opacity="0.8"/></g><g transform="translate(8.717)"><path d="M44.46,35.868a.842.842,0,1,0-.51,1.076A.845.845,0,0,0,44.46,35.868Z" transform="translate(-19.309 -35.309)" fill="#2fc77a"/><path d="M44.11,37.22a1.749,1.749,0,1,0-.8,2.34A1.75,1.75,0,0,0,44.11,37.22Z" transform="translate(-23.532 -33.38)" fill="#2fc77a"/><path d="M43.474,39.161a2.658,2.658,0,1,0-.818,3.669A2.657,2.657,0,0,0,43.474,39.161Z" transform="translate(-28.132 -29.875)" fill="#2fc77a"/><path d="M43.039,41.892a3.564,3.564,0,1,0-.554,5.009A3.563,3.563,0,0,0,43.039,41.892Z" transform="translate(-32.031 -24.423)" fill="#2fc77a"/><path d="M42.853,51.96a4.471,4.471,0,1,0-6.323-.025A4.469,4.469,0,0,0,42.853,51.96Z" transform="translate(-35.061 -16.618)" fill="#2fc77a"/><path d="M40.291,58.729a.841.841,0,1,0-1.184.1A.843.843,0,0,0,40.291,58.729Z" transform="translate(-27.643 10.412)" fill="#2fc77a" opacity="0.2"/><path d="M40.34,55.838a1.749,1.749,0,1,0-.077,2.472A1.749,1.749,0,0,0,40.34,55.838Z" transform="translate(-30.737 6.147)" fill="#2fc77a" opacity="0.4"/><path d="M40.707,53.518a2.657,2.657,0,1,0-.532,3.718A2.658,2.658,0,0,0,40.707,53.518Z" transform="translate(-33.628 0.275)" fill="#2fc77a" opacity="0.6"/><path d="M41.81,50.617A3.565,3.565,0,1,0,40.558,55.5,3.565,3.565,0,0,0,41.81,50.617Z" transform="translate(-35.177 -7.173)" fill="#2fc77a" opacity="0.8"/></g><g transform="translate(35.403 38.488)"><path d="M43.855,65.021V62.589a4.908,4.908,0,0,0,1,.664,8.6,8.6,0,0,0,1.227.5,10.358,10.358,0,0,0,1.3.317,7.574,7.574,0,0,0,1.205.108,4.7,4.7,0,0,0,2.845-.707,2.644,2.644,0,0,0,.627-3.272,3.523,3.523,0,0,0-.867-.963,8.255,8.255,0,0,0-1.307-.833q-.756-.4-1.63-.84c-.612-.314-1.187-.627-1.719-.947a7.315,7.315,0,0,1-1.387-1.058,4.407,4.407,0,0,1-.929-1.31,4.452,4.452,0,0,1,.191-3.807,4.558,4.558,0,0,1,1.387-1.47,6.3,6.3,0,0,1,1.962-.858A8.854,8.854,0,0,1,50,47.825a8.56,8.56,0,0,1,3.795.627v2.322a6.884,6.884,0,0,0-4-1.082,6.5,6.5,0,0,0-1.35.141,3.9,3.9,0,0,0-1.205.461,2.619,2.619,0,0,0-.858.824,2.177,2.177,0,0,0-.332,1.227,2.507,2.507,0,0,0,.252,1.166,2.883,2.883,0,0,0,.741.9,7.434,7.434,0,0,0,1.2.784c.471.252,1.015.535,1.627.833.63.314,1.227.64,1.8.984a7.97,7.97,0,0,1,1.485,1.141,5.1,5.1,0,0,1,1.012,1.387,3.908,3.908,0,0,1,.375,1.744,4.445,4.445,0,0,1-.51,2.2,4.2,4.2,0,0,1-1.375,1.47,6.009,6.009,0,0,1-2,.818,10.842,10.842,0,0,1-2.38.252,10.149,10.149,0,0,1-1.033-.065c-.409-.046-.83-.111-1.252-.2a9.244,9.244,0,0,1-1.209-.32A3.885,3.885,0,0,1,43.855,65.021Z" transform="translate(-43.855 -47.825)" fill="#292526"/><path d="M51.351,58.88v6.658H49.288V47.92h4.84a6.4,6.4,0,0,1,4.379,1.375,4.91,4.91,0,0,1,1.556,3.881,5.341,5.341,0,0,1-1.728,4.1,6.589,6.589,0,0,1-4.665,1.6H51.351Zm0-9.093V57.01h2.162a4.817,4.817,0,0,0,3.26-.975A3.458,3.458,0,0,0,57.9,53.277q0-3.487-4.13-3.49Z" transform="translate(-32.581 -47.628)" fill="#292526"/><path d="M59.633,47.92v1.768H57.914V63.766h1.719v1.768h-5.5V63.766H55.85V49.688H54.128V47.92Z" transform="translate(-22.537 -47.628)" fill="#292526"/><path d="M71.885,65.538H69.354L60.289,51.5a5.965,5.965,0,0,1-.566-1.107h-.071a18.523,18.523,0,0,1,.1,2.42V65.538H57.684V47.92h2.678l8.82,13.82c.369.575.606.966.713,1.181h.052a18.447,18.447,0,0,1-.123-2.592V47.92h2.063V65.538Z" transform="translate(-15.157 -47.628)" fill="#292526"/><path d="M73.958,65.538H64.622V47.92h8.943v1.867H66.685v5.861h6.363V57.5H66.685v6.166h7.273v1.87Z" transform="translate(-0.76 -47.628)" fill="#292526"/></g></svg>