<svg xmlns="http://www.w3.org/2000/svg" width="141.85" height="68.5" viewBox="0 0 141.85 68.5"><g transform="translate(42.712 27.719)"><path d="M648.99,374.08V376.9h3.768v9.742h3.014V376.9h3.822V374.08Z" transform="translate(-560.456 -373.829)" fill="#38415f"/><path d="M543.624,383.822V381.6h4.79V378.96h-4.79V376.9h6.118V374.08h-9.133v12.559h9.24v-2.817Z" transform="translate(-478.332 -373.829)" fill="#38415f"/><path d="M483.4,374.079v2.871c0,2.279.037,4.5.018,4.5H483.4c-.017,0-1.937-2.709-2.745-3.785l-2.673-3.588h-2.835v12.559h3.015v-2.781c0-2.745-.036-4.683-.018-4.683h.018c.018,0,1.7,2.387,2.852,3.965l2.566,3.5h2.835V374.079H483.4Z" transform="translate(-428.727 -373.828)" fill="#38415f"/><path d="M417.935,374.079v2.871c0,2.279.036,4.5.017,4.5h-.017c-.017,0-1.938-2.709-2.745-3.785l-2.673-3.588h-2.835v12.559H412.7v-2.781c0-2.745-.036-4.683-.018-4.683h.018c.018,0,1.7,2.387,2.852,3.965l2.566,3.5h2.835V374.079h-3.014Z" transform="translate(-379.124 -373.828)" fill="#38415f"/><path d="M343.8,379.575a3.386,3.386,0,1,1,3.373,3.552,3.28,3.28,0,0,1-3.373-3.552m-3.14,0a6.522,6.522,0,1,0,6.512-6.531,6.4,6.4,0,0,0-6.512,6.531" transform="translate(-326.825 -373.044)" fill="#38415f"/><path d="M292.59,382.087a3.552,3.552,0,1,1,0-5.024l2.106-2.107a6.531,6.531,0,1,0,0,9.236Z" transform="translate(-283.547 -373.044)" fill="#38415f"/><path d="M600.753,382.087a3.552,3.552,0,1,1,0-5.024l2.107-2.107a6.531,6.531,0,1,0,0,9.236Z" transform="translate(-517.053 -373.044)" fill="#38415f"/></g><path d="M135.078,320.4l-19.367-19.366a4.96,4.96,0,0,0-7.015,7.015l15.859,15.859,3.508-3.508A4.959,4.959,0,0,1,135.078,320.4Z" transform="translate(-107.243 -289.661)" fill="#48bcc7"/><path d="M131.57,404.96a4.944,4.944,0,0,1-3.508-1.454L124.555,400,108.7,415.857a4.961,4.961,0,1,0,7.015,7.016l19.367-19.366A4.946,4.946,0,0,1,131.57,404.96Z" transform="translate(-107.243 -365.749)" fill="#48bcc7"/><path d="M185.717,389.444a4.961,4.961,0,1,0-3.508-8.469l-3.508,3.508,3.508,3.508A4.945,4.945,0,0,0,185.717,389.444Z" transform="translate(-161.39 -350.233)" fill="#329096"/><path d="M169.019,286.462a4.959,4.959,0,0,1,0-7.015l3.508-3.508-15.859-15.858a4.961,4.961,0,0,0-7.015,7.015Z" transform="translate(-138.277 -258.627)" fill="#b329b7"/><path d="M252.123,318.648l9.076-9.076a4.961,4.961,0,0,0-7.016-7.015l-5.568,5.568,3.508,3.508A4.959,4.959,0,0,1,252.123,318.648Z" transform="translate(-214.365 -290.813)" fill="#b329b7"/><path d="M229.591,340.609a4.961,4.961,0,0,0,7.015-7.015l-3.508-3.508-3.508,3.508A4.96,4.96,0,0,0,229.591,340.609Z" transform="translate(-198.849 -312.774)" fill="#86258e"/><path d="M169.019,426.477l-19.366,19.366a4.96,4.96,0,1,0,7.015,7.015L172.527,437l-3.508-3.508A4.96,4.96,0,0,1,169.019,426.477Z" transform="translate(-138.277 -385.813)" fill="#aecb40"/><path d="M252.123,426.477a4.96,4.96,0,0,1,0,7.016L248.615,437l5.568,5.568a4.961,4.961,0,0,0,7.016-7.015Z" transform="translate(-214.365 -385.813)" fill="#aecb40"/><path d="M236.606,421.931a4.961,4.961,0,1,0-7.015,7.016l3.508,3.508,3.508-3.508A4.96,4.96,0,0,0,236.606,421.931Z" transform="translate(-198.849 -381.267)" fill="#94a839"/></svg>