<svg width="94" height="90" viewBox="0 0 94 90" fill="none" xmlns="http://www.w3.org/2000/svg">
<g clip-path="url(#clip0)">
<path d="M7.96294 88.2147L7.08436 86.1881H3.12341L2.24385 88.2147H0L4.08291 78.8313H6.12386L10.2068 88.2147H7.96294ZM5.11038 81.624L3.921 84.3492H6.28777L5.11038 81.624Z" fill="#ABABAB"/>
<path d="M22.8363 83.4669C22.8492 84.3977 22.5883 85.312 22.0857 86.0979C21.5999 86.8647 20.8968 87.4719 20.0647 87.8435C20.1595 87.99 20.2925 88.1084 20.4496 88.1859C20.6173 88.2778 20.8057 88.3263 20.9973 88.3268C21.1856 88.3267 21.3728 88.2973 21.552 88.2395C21.7066 88.1936 21.8527 88.1233 21.9848 88.0311C22.1852 87.8809 22.3548 87.6939 22.4845 87.4803L23.5839 88.7824C23.2145 89.1791 22.7643 89.4932 22.2631 89.7039C21.762 89.9145 21.2215 90.0168 20.6774 90.004C20.1144 89.9992 19.5626 89.8465 19.0782 89.5614C18.5631 89.2719 18.1458 88.8375 17.8788 88.313C17.2269 88.3285 16.5786 88.2135 15.9724 87.9747C15.3662 87.736 14.8146 87.3785 14.3506 86.9236C13.4328 86.004 12.9178 84.7616 12.9178 83.4669C12.9178 82.1722 13.4328 80.9299 14.3506 80.0103C15.3058 79.118 16.5679 78.6211 17.8794 78.6211C19.1909 78.6211 20.4529 79.118 21.408 80.0103C21.8746 80.4566 22.2425 80.9944 22.4884 81.5895C22.7343 82.1845 22.8528 82.8239 22.8363 83.4669ZM20.6864 83.4739C20.704 82.6831 20.4132 81.9162 19.8748 81.3332C19.624 81.0544 19.3168 80.8314 18.9732 80.6787C18.6295 80.5259 18.2573 80.447 17.8809 80.447C17.5044 80.447 17.1322 80.5259 16.7886 80.6787C16.4449 80.8314 16.1377 81.0544 15.8869 81.3332C15.3642 81.9244 15.076 82.6842 15.076 83.4709C15.076 84.2576 15.3642 85.0174 15.8869 85.6086C16.1389 85.8854 16.4465 86.1067 16.79 86.2582C17.1334 86.4097 17.5051 86.4879 17.8809 86.4879C18.2567 86.4879 18.6283 86.4097 18.9718 86.2582C19.3152 86.1067 19.6229 85.8854 19.8748 85.6086C20.4156 85.0267 20.7067 84.2585 20.6864 83.4669V83.4739Z" fill="#ABABAB"/>
<path d="M29.8397 85.7911C30.008 86.0029 30.2243 86.1722 30.4709 86.2853C30.7175 86.3985 30.9875 86.4522 31.259 86.4421C31.5296 86.4526 31.7987 86.399 32.0443 86.2858C32.2898 86.1726 32.5047 86.003 32.6713 85.7911C33.044 85.2746 33.2277 84.6471 33.192 84.0127V78.8352H35.301V84.0841C35.3389 84.656 35.2576 85.2294 35.0622 85.7687C34.8669 86.3079 34.5616 86.8014 34.1655 87.2182C33.3624 87.924 32.3267 88.313 31.2542 88.3118C30.1817 88.3105 29.1469 87.919 28.3455 87.2113C27.9485 86.7962 27.6421 86.3042 27.4455 85.7661C27.2489 85.228 27.1664 84.6554 27.2031 84.0841V78.8352H29.312V84.0167C29.2774 84.6508 29.4637 85.2774 29.8397 85.7911Z" fill="#ABABAB"/>
<path d="M46.6842 88.2147L45.8046 86.1881H41.8436L40.9641 88.2147H38.7202L42.8032 78.8313H44.8441L48.927 88.2147H46.6842ZM43.8316 81.624L42.6422 84.3492H45.008L43.8316 81.624Z" fill="#ABABAB"/>
<path d="M56.0394 80.6434V88.2136H53.9305V80.6434H51.2538V78.8342H58.716V80.6464L56.0394 80.6434Z" fill="#ABABAB"/>
<path d="M70.626 81.9456C70.6985 82.5612 70.5606 83.183 70.2343 83.7113C69.908 84.2396 69.4123 84.6436 68.8269 84.8584L71.2197 88.2138H68.621L66.522 85.2207H65.0618V88.2138H62.9529V78.8344H66.536C67.6362 78.7387 68.7382 78.9976 69.6785 79.5728C70.0113 79.8679 70.2703 80.236 70.4348 80.648C70.5993 81.0599 70.6647 81.5042 70.626 81.9456ZM68.0843 83.0602C68.2254 82.914 68.3333 82.7395 68.4009 82.5485C68.4685 82.3575 68.4941 82.1543 68.4761 81.9526C68.4991 81.7595 68.4741 81.5638 68.4034 81.3825C68.3326 81.2012 68.2183 81.0398 68.0703 80.9125C67.6336 80.687 67.1414 80.5893 66.651 80.6307H65.0698V83.4095H66.611C67.1279 83.4643 67.6481 83.341 68.0843 83.0602Z" fill="#ABABAB"/>
<path d="M82.306 78.8342V80.7H77.6013V82.6332H81.8332V84.4196H77.6013V86.3657H82.4549V88.2176H75.4934V78.8342H82.306Z" fill="#ABABAB"/>
<path d="M93.8511 78.8342V80.7H89.1475V82.6332H93.3784V84.4196H89.1475V86.3657H94V88.2176H87.0375V78.8342H93.8511Z" fill="#ABABAB"/>
<path d="M77.8982 50.546C72.9557 47.9657 69.3786 51.0056 66.0043 53.3249C64.5144 54.3432 62.7482 54.8885 60.9394 54.8885C59.1306 54.8885 57.3644 54.3432 55.8745 53.3249L53.5417 51.7191C51.5967 50.3895 49.2909 49.6776 46.9295 49.6776C44.5681 49.6776 42.2624 50.3895 40.3174 51.7191L37.9846 53.3249C36.4945 54.3433 34.7282 54.8886 32.9192 54.8886C31.1102 54.8886 29.3438 54.3433 27.8538 53.3249C24.5015 51.0175 21.3491 48.2337 16.1328 50.3912C15.9682 50.4593 15.8187 50.5589 15.6929 50.6844C15.5671 50.8098 15.4673 50.9587 15.3995 51.1224C15.3316 51.2861 15.2968 51.4615 15.2972 51.6386C15.2976 51.8156 15.333 51.9909 15.4016 52.1543C15.4702 52.3177 15.5705 52.4661 15.6969 52.591C15.8232 52.716 15.9731 52.815 16.138 52.8824C16.3029 52.9498 16.4795 52.9843 16.6578 52.9839C16.8362 52.9836 17.0126 52.9483 17.1772 52.8802C20.9063 51.336 23.0133 53.2772 26.3066 55.5399C28.2515 56.8697 30.5573 57.5817 32.9187 57.5817C35.2801 57.5817 37.5859 56.8697 39.5308 55.5399L41.8636 53.9342C43.3537 52.9157 45.1201 52.3704 46.929 52.3704C48.738 52.3704 50.5044 52.9157 51.9944 53.9342C54.6041 55.7305 56.801 57.5814 60.9399 57.5814C68.8359 57.5814 70.9348 49.9536 76.6319 52.9319C76.7901 53.0244 76.9656 53.0841 77.1477 53.1073C77.3299 53.1305 77.5149 53.1168 77.6915 53.067C77.8682 53.0172 78.0328 52.9323 78.1754 52.8175C78.3181 52.7027 78.4358 52.5603 78.5214 52.399C78.6071 52.2377 78.6588 52.0608 78.6736 51.8791C78.6884 51.6973 78.6659 51.5145 78.6074 51.3416C78.549 51.1688 78.4558 51.0095 78.3336 50.8734C78.2113 50.7373 78.0625 50.6273 77.8962 50.55L77.8982 50.546Z" fill="#ABABAB"/>
<path d="M70.446 58.9947C70.2751 59.1306 70.0992 59.2835 69.8953 59.4611C68.7374 60.5689 67.3615 61.4272 65.8538 61.9823C64.3461 62.5373 62.7392 62.777 61.1338 62.6865C52.7381 62.4622 50.5392 54.4345 40.7082 60.3195C38.3945 61.6437 35.8181 62.4514 33.1581 62.6865C27.5949 62.8373 25.1252 60.0149 23.8458 58.9947C23.7071 58.8818 23.5471 58.7973 23.3753 58.7462C23.2035 58.6951 23.0231 58.6783 22.8447 58.6968C22.6663 58.7153 22.4934 58.7687 22.3359 58.854C22.1784 58.9393 22.0395 59.0547 21.9272 59.1936C21.8149 59.3325 21.7315 59.4921 21.6817 59.6633C21.6319 59.8344 21.6168 60.0136 21.6372 60.1906C21.6576 60.3675 21.7132 60.5387 21.8006 60.6942C21.8881 60.8498 22.0057 60.9865 22.1467 61.0966C22.2716 61.1958 22.4276 61.3318 22.6075 61.4936C24.0186 62.8256 25.6885 63.8579 27.5152 64.5271C29.3418 65.1964 31.2868 65.4886 33.231 65.3859C36.3601 65.1354 39.3933 64.1946 42.1095 62.6319C43.5362 61.4901 45.3135 60.8675 47.1459 60.8675C48.9784 60.8675 50.7556 61.4901 52.1824 62.6319C54.8986 64.1942 57.9319 65.1347 61.0608 65.3849C67.1827 65.5476 69.9453 62.8522 72.1462 61.1006C72.427 60.8769 72.6069 60.5515 72.6461 60.1961C72.6854 59.8407 72.5809 59.4844 72.3556 59.2055C72.244 59.0675 72.1061 58.9525 71.9498 58.8674C71.7935 58.7822 71.6219 58.7284 71.4447 58.7091C71.0867 58.6701 70.7279 58.7739 70.447 58.9976L70.446 58.9947Z" fill="#ABABAB"/>
<path d="M52.6601 68.0612C48.6342 65.2894 45.6417 64.9976 41.205 68.0612C40.9094 68.2655 40.7077 68.5779 40.6441 68.9299C40.5806 69.2818 40.6604 69.6444 40.8661 69.9379C41.0718 70.2314 41.3865 70.4317 41.741 70.4948C42.0954 70.5579 42.4606 70.4786 42.7562 70.2743C46.1714 67.9124 47.9795 68.1188 51.1139 70.2743C51.2603 70.3783 51.426 70.4523 51.6014 70.4921C51.7768 70.5319 51.9584 70.5366 52.1357 70.506C52.313 70.4755 52.4824 70.4102 52.6341 70.3141C52.7857 70.2179 52.9166 70.0927 53.0191 69.9459C53.1216 69.7991 53.1937 69.6334 53.2311 69.4587C53.2686 69.2839 53.2707 69.1035 53.2373 68.928C53.2039 68.7524 53.1356 68.5852 53.0365 68.4361C52.9375 68.2869 52.8095 68.1588 52.6601 68.0592V68.0612Z" fill="#ABABAB"/>
<path d="M24.1876 45.7972C26.6973 47.525 28.9572 49.4483 33.307 49.4483C38.4813 49.4483 43.4648 46.0404 43.9825 40.0421C43.9925 39.8863 43.9885 32.1246 43.9885 31.9698C43.9885 27.743 38.7722 23.8517 35.4519 20.147C35.173 17.0209 34.8202 14.3642 34.4744 11.9853C34.6663 11.8047 34.2875 12.3297 40.5713 2.92249C40.7652 2.62452 40.833 2.26265 40.7599 1.91537C40.6868 1.5681 40.4788 1.26344 40.181 1.06749C39.8831 0.871543 39.5194 0.800104 39.1689 0.868691C38.8183 0.937277 38.5091 1.14035 38.3084 1.43385L33.8877 8.04935C33.6968 6.7592 33.5169 5.49287 33.3629 4.19379C33.3208 3.83846 33.1382 3.5143 32.8554 3.29263C32.5725 3.07097 32.2126 2.96995 31.8547 3.0118C31.4968 3.05365 31.1704 3.23495 30.9471 3.5158C30.7239 3.79665 30.6222 4.15404 30.6643 4.50937C31.1581 8.67756 31.8947 12.4537 32.4634 17.5905C28.9352 14.6728 27.8218 13.5811 23.376 10.2188C23.0893 10.0065 22.7298 9.91509 22.3756 9.96453C22.0214 10.014 21.7012 10.2002 21.4845 10.4828C21.2679 10.7654 21.1724 11.1215 21.2187 11.4736C21.265 11.8258 21.4494 12.1455 21.7319 12.3634C23.5809 13.7617 24.8453 14.7621 25.9487 15.6662L19.3801 15.3119C19.0214 15.2939 18.6702 15.4178 18.4034 15.6564C18.1365 15.8951 17.9758 16.2289 17.9564 16.585C17.9369 16.941 18.0604 17.2902 18.2997 17.556C18.539 17.8219 18.8747 17.9827 19.2332 18.0034L29.394 18.5512C30.3934 19.3928 31.5859 20.3782 33.192 21.6724C35.9536 24.8283 40.3784 28.3434 41.157 31.1748C38.9757 29.1803 36.1863 27.9658 33.231 27.7242C31.9356 25.783 30.4012 24.0101 28.6633 22.4465C28.5294 22.3296 28.3736 22.2401 28.2048 22.1831C28.036 22.126 27.8576 22.1025 27.6797 22.114C27.5017 22.1254 27.3278 22.1715 27.1679 22.2497C27.0079 22.3278 26.865 22.4365 26.7473 22.5695C26.6297 22.7025 26.5395 22.8572 26.4821 23.0248C26.4246 23.1924 26.401 23.3696 26.4125 23.5462C26.424 23.7229 26.4704 23.8956 26.5491 24.0544C26.6278 24.2133 26.7373 24.3552 26.8713 24.472C27.9154 25.4183 28.8823 26.4454 29.7628 27.5436C28.4097 27.559 27.0593 27.6658 25.7208 27.8631L17.3171 20.9261C17.1801 20.8129 17.0218 20.7276 16.8516 20.6751C16.6813 20.6227 16.5023 20.604 16.3247 20.6202C16.1472 20.6364 15.9746 20.6872 15.8168 20.7697C15.659 20.8521 15.5191 20.9646 15.4051 21.1007C15.2911 21.2369 15.2052 21.3939 15.1524 21.563C15.0995 21.7321 15.0808 21.9099 15.0971 22.0862C15.1134 22.2624 15.1645 22.4338 15.2476 22.5905C15.3306 22.7472 15.4439 22.886 15.581 22.9992L21.0862 27.5436H13.5651C13.2051 27.5436 12.8598 27.6855 12.6053 27.9383C12.3507 28.191 12.2078 28.5338 12.2078 28.8913C12.2078 29.2487 12.3507 29.5915 12.6053 29.8442C12.8598 30.097 13.2051 30.239 13.5651 30.239H21.561L12.4186 36.0139C12.1149 36.2058 11.9003 36.5096 11.8221 36.8586C11.744 37.2075 11.8086 37.573 12.0018 37.8747C12.1951 38.1763 12.5011 38.3894 12.8525 38.467C13.204 38.5446 13.5721 38.4804 13.8759 38.2885L26.1696 30.5228C28.8069 30.1284 31.4904 30.1508 34.1205 30.5893C31.5339 33.0247 28.5844 36.264 28.4295 36.4347C28.1882 36.7001 28.0631 37.0498 28.0815 37.4069C28.1 37.764 28.2606 38.0991 28.5279 38.3386C28.7952 38.5782 29.1475 38.7024 29.5071 38.6841C29.8667 38.6658 30.2042 38.5063 30.4454 38.2409C30.4884 38.1942 34.4184 33.8742 37.0611 31.5688C41.5258 33.8564 41.2719 37.3844 41.2719 39.8635C40.965 44.7859 36.3464 46.2527 35.8197 46.4046C34.5152 46.771 33.1461 46.8518 31.8072 46.6412C30.4682 46.4306 29.1912 45.9337 28.0646 45.1849L25.7318 43.5791C23.9065 42.4083 21.8007 41.7402 19.6298 41.643C17.459 41.5459 15.3011 42.0233 13.3771 43.0264C13.0577 43.1915 12.8175 43.4759 12.7092 43.817C12.601 44.158 12.6336 44.5278 12.8 44.845C12.9663 45.1622 13.2527 45.4007 13.5962 45.5082C13.9397 45.6157 14.3121 45.5833 14.6315 45.4181C16.1192 44.6478 17.784 44.2775 19.4604 44.344C21.1369 44.4105 22.7666 44.9115 24.1876 45.7972Z" fill="#ABABAB"/>
<path d="M79.9302 34.2038C80.1953 34.4463 80.5465 34.5744 80.9067 34.5598C81.2669 34.5452 81.6064 34.3891 81.8507 34.1259C82.095 33.8627 82.2239 33.5139 82.2092 33.1563C82.1945 32.7986 82.0373 32.4615 81.7722 32.2189C78.9585 29.4298 75.5879 27.2564 71.8773 25.8386L77.3385 24.8591C77.6929 24.7955 78.0074 24.5948 78.2127 24.301C78.4181 24.0072 78.4975 23.6445 78.4335 23.2926C78.3694 22.9407 78.1672 22.6284 77.8714 22.4245C77.5755 22.2206 77.2102 22.1418 76.8558 22.2054C65.0918 24.3163 65.7614 24.1823 65.5685 24.2557C64.7586 24.1856 63.9442 24.1826 63.1338 24.2468C65.0678 22.3096 66.8559 20.5371 68.3941 19.0217C68.589 19.0544 68.1412 19.0395 75.1786 19.0643C75.5386 19.0655 75.8843 18.9247 76.1397 18.6728C76.3951 18.4209 76.5392 18.0785 76.5404 17.7211C76.5416 17.3637 76.3997 17.0204 76.146 16.7668C75.8923 16.5132 75.5476 16.3701 75.1876 16.3689L71.1127 16.354C72.7938 14.7126 73.8043 13.74 73.8293 13.7172C73.9574 13.5941 74.0598 13.4471 74.1307 13.2847C74.2017 13.1223 74.2397 12.9476 74.2426 12.7707C74.2455 12.5937 74.2133 12.4179 74.1478 12.2532C74.0823 12.0886 73.9847 11.9384 73.8608 11.8112C73.7368 11.684 73.5888 11.5823 73.4253 11.5119C73.2617 11.4415 73.0858 11.4037 72.9076 11.4008C72.7293 11.3979 72.5522 11.4299 72.3864 11.495C72.2206 11.56 72.0694 11.6569 71.9413 11.7799C71.9063 11.8137 69.8423 13.8035 66.675 16.9177C67.0308 13.8085 67.2047 11.6678 67.7824 7.54329C67.8069 7.36793 67.7965 7.18948 67.7516 7.01815C67.7066 6.84682 67.6282 6.68596 67.5207 6.54473C67.4131 6.4035 67.2787 6.28468 67.1249 6.19506C66.9711 6.10544 66.8011 6.04677 66.6245 6.02239C66.4479 5.99802 66.2682 6.00842 66.0956 6.05301C65.923 6.0976 65.761 6.1755 65.6188 6.28227C65.4766 6.38903 65.3569 6.52257 65.2666 6.67525C65.1764 6.82793 65.1173 6.99676 65.0928 7.17211C64.3192 12.6969 64.2472 14.8267 63.5585 20.0012C62.2522 21.2993 60.8469 22.7055 59.3817 24.1823L58.782 15.7278C58.7568 15.3712 58.59 15.0391 58.3182 14.8046C58.0464 14.5701 57.6919 14.4524 57.3327 14.4774C56.9735 14.5024 56.6391 14.668 56.4029 14.9379C56.1667 15.2077 56.0482 15.5597 56.0734 15.9164C56.855 26.9908 56.799 26.2932 56.831 26.447C55.4085 27.3698 54.154 28.5255 53.1209 29.8649C52.4212 27.4354 51.5367 26.5899 50.1504 24.9157C49.1919 23.7555 47.9615 22.2669 46.5342 20.5708L47.8476 17.4943C52.7451 13.4045 59.9544 7.20089 62.0773 5.37284C62.3493 5.13859 62.5164 4.80666 62.5419 4.45006C62.5674 4.09346 62.4491 3.74142 62.2132 3.47137C61.9773 3.20132 61.643 3.03538 61.2839 3.01006C60.9247 2.98475 60.5702 3.10215 60.2982 3.3364C58.724 4.69205 54.3492 8.45632 50.2034 11.9705L54.3453 2.26061C54.4746 1.93366 54.4702 1.5695 54.3331 1.2457C54.196 0.921895 53.937 0.664025 53.6113 0.527019C53.2855 0.390012 52.9188 0.384693 52.5892 0.512193C52.2596 0.639693 51.9931 0.889938 51.8465 1.20963L48.6931 8.60419C48.3023 5.87502 47.9105 3.58451 47.5437 1.14612C47.5175 0.971023 47.4567 0.802772 47.365 0.650981C47.2733 0.499189 47.1523 0.366832 47.0091 0.261452C46.8658 0.156073 46.7031 0.0797426 46.5301 0.0368181C46.3571 -0.00610632 46.1773 -0.0147939 46.001 0.0112715C45.8247 0.037337 45.6552 0.0976325 45.5024 0.18872C45.3495 0.279807 45.2162 0.399905 45.11 0.542147C45.0039 0.684388 44.927 0.845993 44.8838 1.01773C44.8406 1.18947 44.8318 1.36799 44.8581 1.54308C45.4168 5.25475 46.0305 8.61808 46.5882 13.5365L44.5752 18.2635C44.0668 17.668 43.5428 17.0577 43.0031 16.4324L42.1625 9.51523C42.1194 9.1599 41.9359 8.83612 41.6524 8.61511C41.3689 8.39409 41.0086 8.29396 40.6507 8.33673C40.2929 8.3795 39.9668 8.56166 39.7442 8.84316C39.5216 9.12466 39.4208 9.48244 39.4638 9.83777L40.4034 17.5687C44.7222 22.5477 47.5997 26.1096 49.2928 28.1311C49.7926 28.7266 51.3918 31.0895 50.933 36.276C50.854 37.399 50.842 38.5257 50.897 39.6502C50.9261 41.6586 51.5475 43.6146 52.6844 45.276C53.8213 46.9374 55.4239 48.2314 57.2937 48.9978C58.3568 49.3 59.4574 49.452 60.5631 49.4494C64.8859 49.4494 67.1287 47.5559 69.6824 45.7983C71.095 44.7841 72.7952 44.241 74.5383 44.2468C76.2815 44.2527 77.9778 44.8074 79.3835 45.831C79.6793 46.0348 80.0445 46.1134 80.3988 46.0498C80.753 45.9861 81.0673 45.7853 81.2725 45.4916C81.4777 45.1979 81.5569 44.8352 81.4928 44.4835C81.4287 44.1317 81.2265 43.8196 80.9307 43.6159C79.0678 42.2868 76.8331 41.5691 74.5392 41.5632C72.2453 41.5573 70.0069 42.2636 68.1372 43.5832L65.8044 45.1889C64.6781 45.9379 63.4013 46.4349 62.0625 46.6455C60.7236 46.8561 59.3547 46.7753 58.0504 46.4086C56.7277 45.8019 55.6071 44.8324 54.8207 43.6145C54.0343 42.3965 53.6148 40.9808 53.6116 39.5341C53.3528 33.6004 54.742 31.6155 57.0099 29.6952C58.8797 28.019 61.2762 27.0371 63.7924 26.9164L69.3966 35.614C69.4926 35.7631 69.6174 35.892 69.7636 35.9932C69.9098 36.0944 70.0747 36.1661 70.2488 36.204C70.4229 36.242 70.6029 36.2456 70.7784 36.2145C70.9539 36.1834 71.1215 36.1183 71.2716 36.0229C71.4218 35.9275 71.5515 35.8037 71.6535 35.6585C71.7555 35.5133 71.8276 35.3496 71.8659 35.1767C71.9041 35.0038 71.9076 34.8251 71.8763 34.6509C71.845 34.4766 71.7795 34.3102 71.6834 34.1611L67.2187 27.231C67.6185 27.3164 68.0253 27.4182 68.439 27.5367C72.7887 28.7277 76.7498 31.0259 79.9302 34.2038Z" fill="#ABABAB"/>
</g>
<defs>
<clipPath id="clip0">
<rect width="94" height="90" fill="white"/>
</clipPath>
</defs>
</svg>
