<svg width="116" height="98" viewBox="0 0 116 98" fill="none" xmlns="http://www.w3.org/2000/svg">
<g clip-path="url(#clip0)" filter="url(#filter0_d)">
<path d="M10.4024 26.6335C10.2658 26.5394 10.1045 26.4881 9.9388 26.4859C9.77311 26.4838 9.6105 26.5309 9.47157 26.6214C9.33263 26.7118 9.22362 26.8415 9.15832 26.9941C9.09303 27.1466 9.07439 27.3152 9.10477 27.4783C9.13515 27.6415 9.21317 27.792 9.32897 27.9107C9.44477 28.0294 9.59314 28.1111 9.75528 28.1453C9.91743 28.1795 10.0861 28.1648 10.2399 28.1029C10.3936 28.0411 10.5256 27.935 10.6192 27.7979C10.7445 27.6147 10.7921 27.3891 10.7515 27.1707C10.7108 26.9524 10.5852 26.7591 10.4024 26.6335Z" fill="#ABABAB"/>
<path d="M8.64124 31.9597C8.33732 31.7983 7.99245 31.7309 7.65025 31.7658C7.30805 31.8008 6.98387 31.9366 6.71872 32.1561C6.45357 32.3756 6.25935 32.6689 6.16061 32.9989C6.06186 33.329 6.06304 33.681 6.16398 34.0103C6.26493 34.3397 6.46111 34.6317 6.72772 34.8494C6.99433 35.0671 7.3194 35.2008 7.66183 35.2334C8.00426 35.2661 8.34866 35.1963 8.65151 35.0329C8.95435 34.8696 9.20203 34.6199 9.36323 34.3155C9.57919 33.9072 9.62445 33.4297 9.48907 32.9879C9.35369 32.5462 9.04874 32.1763 8.64124 31.9597Z" fill="#ABABAB"/>
<path d="M7.61393 39.4117C7.12787 39.2194 6.59579 39.1757 6.08496 39.2863C5.57413 39.3968 5.10751 39.6567 4.74411 40.0329C4.3807 40.4091 4.13683 40.8848 4.04335 41.3998C3.94987 41.9149 4.01096 42.4461 4.21891 42.9264C4.42686 43.4067 4.77232 43.8144 5.2116 44.098C5.65089 44.3815 6.16427 44.5283 6.68681 44.5196C7.20936 44.5109 7.7176 44.3472 8.14726 44.0492C8.57692 43.7512 8.90871 43.3323 9.10066 42.8454C9.22822 42.5221 9.29095 42.1769 9.28527 41.8294C9.27958 41.4818 9.2056 41.1389 9.06753 40.82C8.92946 40.5011 8.73002 40.2126 8.48061 39.971C8.2312 39.7293 7.9367 39.5393 7.61393 39.4117Z" fill="#ABABAB"/>
<path d="M8.90972 48.5452C8.23355 48.3605 7.51789 48.3808 6.8532 48.6034C6.18852 48.8261 5.60466 49.2411 5.17543 49.7961C4.7462 50.3511 4.49087 51.0211 4.44171 51.7214C4.39256 52.4217 4.55179 53.1209 4.89928 53.7305C5.24676 54.3402 5.7669 54.833 6.39395 55.1466C7.02099 55.4602 7.72678 55.5806 8.42211 55.4925C9.11743 55.4044 9.77106 55.1117 10.3004 54.6516C10.8297 54.1914 11.2109 53.5844 11.3959 52.9073C11.5187 52.4573 11.5517 51.9876 11.4932 51.5249C11.4347 51.0621 11.2858 50.6155 11.0549 50.2104C10.824 49.8053 10.5157 49.4498 10.1477 49.1641C9.7796 48.8784 9.35894 48.6681 8.90972 48.5452Z" fill="#ABABAB"/>
<path d="M16.769 64.8328C16.9091 63.9636 16.7887 63.0723 16.4232 62.2715C16.0576 61.4708 15.4632 60.7966 14.7152 60.3342C13.9672 59.8718 13.099 59.6419 12.2206 59.6735C11.3421 59.7052 10.4928 59.9971 9.77989 60.5122C9.067 61.0273 8.52258 61.7426 8.21546 62.5676C7.90833 63.3926 7.85229 64.2903 8.05442 65.1472C8.25654 66.0041 8.70776 66.7817 9.35103 67.3818C9.9943 67.9819 10.8007 68.3774 11.6684 68.5185C12.245 68.6124 12.8344 68.5915 13.4028 68.457C13.9713 68.3225 14.5078 68.0771 14.9815 67.7348C15.4552 67.3925 15.8569 66.96 16.1636 66.4621C16.4704 65.9641 16.6761 65.4105 16.769 64.8328Z" fill="#ABABAB"/>
<path opacity="0.2" d="M40.4313 89.2291C40.4443 89.0639 40.408 88.8987 40.3271 88.7543C40.2462 88.6098 40.1243 88.4927 39.9769 88.4176C39.8295 88.3426 39.6631 88.3131 39.499 88.3329C39.3348 88.3526 39.1802 88.4207 39.0547 88.5285C38.9292 88.6364 38.8384 88.7791 38.794 88.9386C38.7495 89.0981 38.7533 89.2673 38.8049 89.4247C38.8564 89.582 38.9535 89.7205 39.0837 89.8226C39.2139 89.9247 39.3714 89.9857 39.5363 89.9981C39.7565 90.0138 39.974 89.9418 40.1416 89.7978C40.3092 89.6539 40.4133 89.4495 40.4313 89.2291Z" fill="#ABABAB"/>
<path opacity="0.4" d="M33.7983 85.2426C33.4599 85.1782 33.1101 85.2157 32.7931 85.3505C32.4761 85.4853 32.2062 85.7112 32.0174 85.9997C31.8287 86.2883 31.7297 86.6264 31.7329 86.9714C31.7361 87.3163 31.8414 87.6525 32.0354 87.9375C32.2295 88.2225 32.5036 88.4434 32.8231 88.5722C33.1425 88.701 33.493 88.732 33.83 88.6613C34.1671 88.5905 34.4756 88.4212 34.7166 88.1747C34.9575 87.9283 35.12 87.6157 35.1836 87.2767C35.2691 86.823 35.1712 86.3538 34.9114 85.9723C34.6517 85.5908 34.2512 85.3284 33.7983 85.2426Z" fill="#ABABAB"/>
<path opacity="0.6" d="M26.9781 80.1206C26.4787 79.9662 25.9448 79.9637 25.444 80.1133C24.9431 80.263 24.4978 80.558 24.1644 80.9612C23.831 81.3643 23.6244 81.8575 23.5708 82.3782C23.5172 82.899 23.619 83.424 23.8633 83.8868C24.1076 84.3496 24.4835 84.7294 24.9433 84.9783C25.4032 85.2271 25.9263 85.3337 26.4467 85.2847C26.967 85.2357 27.4612 85.0331 27.8666 84.7028C28.2721 84.3724 28.5706 83.929 28.7244 83.4287C28.9298 82.758 28.8613 82.0332 28.534 81.413C28.2066 80.7929 27.6471 80.3281 26.9781 80.1206Z" fill="#ABABAB"/>
<path opacity="0.8" d="M20.5708 72.0398C19.9272 71.761 19.2155 71.6796 18.5258 71.806C17.836 71.9323 17.1991 72.2607 16.6957 72.7496C16.1922 73.2385 15.8448 73.8659 15.6974 74.5526C15.55 75.2393 15.6092 75.9543 15.8674 76.6073C16.1257 77.2603 16.5715 77.8219 17.1485 78.2211C17.7254 78.6203 18.4075 78.8391 19.1087 78.85C19.8098 78.8609 20.4984 78.6632 21.0873 78.2821C21.6763 77.9009 22.1392 77.3534 22.4175 76.7087C22.7901 75.8442 22.8049 74.8669 22.4587 73.9915C22.1124 73.1161 21.4334 72.4141 20.5708 72.0398Z" fill="#ABABAB"/>
<path d="M37.6805 0.556844C37.6249 0.400606 37.5242 0.264411 37.3913 0.165479C37.2583 0.0665477 37.0991 0.00932362 36.9337 0.00104527C36.7683 -0.00723309 36.6041 0.0338069 36.462 0.118972C36.3199 0.204137 36.2062 0.329602 36.1353 0.479505C36.0643 0.629407 36.0394 0.797013 36.0635 0.961125C36.0877 1.12524 36.1599 1.27848 36.271 1.40149C36.3821 1.5245 36.5272 1.61174 36.6878 1.65217C36.8484 1.69261 37.0174 1.68444 37.1734 1.62868C37.382 1.55325 37.5524 1.39823 37.6474 1.19745C37.7424 0.996658 37.7543 0.766383 37.6805 0.556844Z" fill="#ABABAB"/>
<path d="M33.1329 3.82522C32.9814 3.51579 32.7418 3.25829 32.4443 3.0853C32.1467 2.9123 31.8046 2.83157 31.4613 2.85333C31.1179 2.87509 30.7888 2.99835 30.5153 3.20752C30.2419 3.4167 30.0366 3.7024 29.9253 4.02847C29.814 4.35455 29.8018 4.70637 29.8901 5.03942C29.9784 5.37248 30.1634 5.67181 30.4216 5.89957C30.6798 6.12732 30.9996 6.27326 31.3406 6.31894C31.6816 6.36461 32.0284 6.30796 32.3373 6.15616C32.7511 5.95246 33.0673 5.59258 33.2165 5.15555C33.3657 4.71852 33.3356 4.24006 33.1329 3.82522Z" fill="#ABABAB"/>
<path d="M27.9259 9.24992C27.6455 8.80794 27.2406 8.45917 26.7623 8.2477C26.2841 8.03624 25.754 7.97158 25.239 8.0619C24.7241 8.15222 24.2474 8.39347 23.8693 8.75514C23.4913 9.11681 23.2287 9.58265 23.115 10.0938C23.0012 10.6049 23.0413 11.1383 23.2302 11.6266C23.4191 12.1149 23.7483 12.5361 24.1762 12.837C24.6041 13.1378 25.1114 13.3049 25.6341 13.3169C26.1567 13.329 26.6712 13.1855 27.1124 12.9047C27.4055 12.7183 27.6591 12.4759 27.8586 12.1913C28.0581 11.9068 28.1997 11.5856 28.2753 11.2462C28.3508 10.9067 28.3589 10.5557 28.2989 10.2132C28.239 9.8707 28.1122 9.54336 27.9259 9.24992Z" fill="#ABABAB"/>
<path d="M23.6159 17.4012C23.1778 16.8531 22.5872 16.4473 21.9189 16.2354C21.2505 16.0235 20.5344 16.0148 19.8612 16.2105C19.1879 16.4063 18.5877 16.7976 18.1365 17.335C17.6853 17.8724 17.4034 18.5318 17.3263 19.2297C17.2492 19.9277 17.3805 20.6329 17.7036 21.2561C18.0266 21.8793 18.5269 22.3925 19.1412 22.7309C19.7555 23.0692 20.4562 23.2175 21.1546 23.157C21.853 23.0965 22.5178 22.8298 23.065 22.3908C23.4283 22.0995 23.7307 21.7393 23.955 21.3308C24.1793 20.9224 24.3211 20.4737 24.3723 20.0103C24.4235 19.547 24.383 19.0781 24.2532 18.6304C24.1234 18.1827 23.9069 17.7651 23.6159 17.4012Z" fill="#ABABAB"/>
<path d="M20.4187 35.2051C21.0429 34.5847 21.4695 33.7928 21.6445 32.9296C21.8194 32.0664 21.7349 31.1705 21.4016 30.3554C21.0683 29.5403 20.5011 28.8425 19.7719 28.3502C19.0426 27.858 18.184 27.5934 17.3047 27.5899C16.4253 27.5864 15.5646 27.8442 14.8315 28.3307C14.0984 28.8171 13.5258 29.5104 13.186 30.3229C12.8463 31.1353 12.7547 32.0305 12.9228 32.8951C13.091 33.7597 13.5113 34.5549 14.1306 35.1802C14.5417 35.5957 15.0306 35.9259 15.5691 36.152C16.1077 36.3781 16.6855 36.4957 17.2695 36.498C17.8535 36.5003 18.4322 36.3873 18.9725 36.1655C19.5129 35.9436 20.0043 35.6173 20.4187 35.2051Z" fill="#ABABAB"/>
<path opacity="0.2" d="M25.2467 68.8732C25.3536 68.7466 25.4206 68.5911 25.4392 68.4264C25.4579 68.2617 25.4273 68.0952 25.3514 67.9479C25.2755 67.8006 25.1577 67.6792 25.0129 67.599C24.868 67.5188 24.7027 67.4834 24.5378 67.4974C24.3729 67.5113 24.2159 67.5739 24.0865 67.6773C23.9572 67.7807 23.8614 67.9202 23.8112 68.0782C23.761 68.2362 23.7588 68.4055 23.8047 68.5647C23.8507 68.724 23.9427 68.866 24.0693 68.9728C24.2389 69.1153 24.4579 69.1847 24.6785 69.1661C24.8991 69.1474 25.1034 69.0421 25.2467 68.8732Z" fill="#ABABAB"/>
<path opacity="0.4" d="M22.2187 61.7449C21.9832 61.4938 21.6785 61.3182 21.3434 61.2405C21.0082 61.1627 20.6576 61.1863 20.3358 61.3082C20.014 61.43 19.7356 61.6448 19.5356 61.9252C19.3357 62.2056 19.2232 62.5391 19.2125 62.8835C19.2018 63.228 19.2933 63.5678 19.4754 63.8602C19.6576 64.1525 19.9222 64.3842 20.2358 64.5259C20.5493 64.6676 20.8978 64.713 21.2372 64.6563C21.5765 64.5996 21.8914 64.4433 22.1421 64.2073C22.4782 63.891 22.6751 63.4538 22.6895 62.992C22.7038 62.5302 22.5345 62.0817 22.2187 61.7449Z" fill="#ABABAB"/>
<path opacity="0.6" d="M19.7086 53.5845C19.3953 53.1655 18.9649 52.8489 18.4719 52.6749C17.9789 52.5009 17.4455 52.4772 16.9391 52.6069C16.4327 52.7366 15.9761 53.0139 15.627 53.4036C15.2779 53.7933 15.0521 54.2779 14.9781 54.7962C14.904 55.3145 14.9851 55.8432 15.2111 56.3153C15.437 56.7874 15.7977 57.1818 16.2475 57.4485C16.6972 57.7153 17.2159 57.8424 17.7378 57.8139C18.2597 57.7853 18.7615 57.6024 19.1796 57.2881C19.7395 56.8669 20.1098 56.2403 20.209 55.546C20.3081 54.8516 20.1282 54.1461 19.7086 53.5845Z" fill="#ABABAB"/>
<path opacity="0.8" d="M19.2651 43.2756C18.908 42.6711 18.38 42.1862 17.7478 41.8823C17.1156 41.5784 16.4076 41.4691 15.7134 41.5683C15.0192 41.6674 14.3699 41.9706 13.8477 42.4394C13.3255 42.9081 12.9538 43.5215 12.7797 44.2019C12.6055 44.8823 12.6367 45.5992 12.8693 46.2618C13.1019 46.9244 13.5254 47.5031 14.0864 47.9246C14.6473 48.3461 15.3204 48.5915 16.0206 48.6298C16.7208 48.6681 17.4166 48.4975 18.02 48.1397C18.8289 47.66 19.4146 46.8781 19.648 45.9659C19.8815 45.0537 19.7438 44.0861 19.2651 43.2756Z" fill="#ABABAB"/>
<path d="M39.207 55.4683V53.0457C39.5103 53.3061 39.8442 53.5282 40.2015 53.7071C40.5948 53.9043 41.0028 54.0708 41.4217 54.2052C41.8454 54.3382 42.2772 54.4437 42.7145 54.5209C43.1105 54.5888 43.5112 54.6247 43.9128 54.6285C44.9068 54.7019 45.8981 54.4552 46.7421 53.9243C47.2035 53.5351 47.5173 52.9988 47.6308 52.4053C47.7443 51.8119 47.6507 51.1974 47.3656 50.6649C47.1399 50.2945 46.8476 49.9693 46.5034 49.7057C46.0971 49.3889 45.6619 49.111 45.2037 48.8759C44.7024 48.6103 44.1621 48.3313 43.5827 48.0391C42.9741 47.7264 42.4022 47.4146 41.8732 47.0958C41.3731 46.8009 40.91 46.4471 40.4939 46.0419C40.1087 45.6673 39.7956 45.225 39.57 44.737C39.3194 44.1302 39.2065 43.4753 39.2393 42.8195C39.2722 42.1637 39.45 41.5233 39.76 40.9447C40.1045 40.3594 40.5759 39.859 41.1393 39.4804C41.7362 39.0861 42.3961 38.797 43.0904 38.6258C43.8177 38.4353 44.5663 38.3389 45.318 38.3389C46.607 38.2576 47.8976 38.4712 49.092 38.9634V41.2764C47.908 40.5165 46.5192 40.1402 45.1142 40.1986C44.663 40.1984 44.213 40.2455 43.7716 40.3391C43.3495 40.4245 42.9445 40.5797 42.5733 40.7983C42.2298 41.0027 41.9378 41.2836 41.72 41.6191C41.4911 41.9846 41.3761 42.4101 41.3899 42.8414C41.3789 43.2431 41.4649 43.6415 41.6405 44.0028C41.8226 44.3488 42.0734 44.6539 42.3774 44.8994C42.7491 45.1976 43.1488 45.4591 43.5707 45.6803C44.0391 45.9313 44.5801 46.2132 45.1887 46.5101C45.8153 46.8229 46.409 47.1476 46.9788 47.4903C47.5139 47.8097 48.0096 48.1912 48.4556 48.6269C48.8666 49.0271 49.2069 49.4943 49.462 50.0085C49.7183 50.551 49.846 51.1456 49.8349 51.7457C49.857 52.5078 49.6823 53.2626 49.3277 53.9372C48.9971 54.5291 48.5279 55.0317 47.9603 55.4015C47.3519 55.7913 46.6781 56.0674 45.9714 56.2164C45.1941 56.3873 44.4003 56.4714 43.6046 56.4674C43.2613 56.4633 42.9184 56.4417 42.5773 56.4026C42.1705 56.3568 41.7519 56.2921 41.3322 56.2034C40.9247 56.1245 40.523 56.018 40.1299 55.8846C39.8054 55.787 39.4951 55.647 39.207 55.4683Z" fill="#ABABAB"/>
<path d="M57.8731 49.5472V56.1794H55.8215V38.6296H60.6348C62.2055 38.5312 63.7569 39.0192 64.9895 39.9993C65.5156 40.4899 65.9271 41.0908 66.1946 41.7591C66.4621 42.4273 66.579 43.1465 66.5369 43.8653C66.5604 44.6298 66.419 45.3903 66.1225 46.0951C65.8259 46.7999 65.3812 47.4324 64.8185 47.9494C63.5364 49.0622 61.8734 49.6335 60.1793 49.5432H57.8731V49.5472ZM57.8731 40.4894V47.6844H60.0232C61.1858 47.7665 62.3384 47.4212 63.2651 46.7132C63.6446 46.3679 63.9421 45.942 64.136 45.4667C64.33 44.9913 64.4153 44.4785 64.3859 43.9659C64.3859 41.6502 63.0168 40.4914 60.2787 40.4894H57.8731Z" fill="#ABABAB"/>
<path d="M76.0977 38.6296V40.3908H74.3882V54.4143H76.0977V56.1754H70.6281V54.4143H72.3356V40.3908H70.6232V38.6296H76.0977Z" fill="#ABABAB"/>
<path d="M95.6211 56.1794H93.1041L84.0892 42.1958C83.8638 41.8488 83.6751 41.4793 83.5264 41.0931H83.4558C83.5414 41.8936 83.5746 42.6988 83.5552 43.5037V56.1794H81.4987V38.6296H84.1618L92.933 52.3961C93.3 52.9689 93.5357 53.3584 93.6421 53.5725H93.6938C93.5926 52.7158 93.5517 51.853 93.5715 50.9906V38.6296H95.6231V56.1794H95.6211Z" fill="#ABABAB"/>
<path d="M112 56.1794H102.716V38.6296H111.609V40.4894H104.767V46.3277H111.095V48.1725H104.767V54.3146H112V56.1774V56.1794Z" fill="#ABABAB"/>
</g>
<defs>
<filter id="filter0_d" x="0" y="0" width="116" height="98" filterUnits="userSpaceOnUse" color-interpolation-filters="sRGB">
<feFlood flood-opacity="0" result="BackgroundImageFix"/>
<feColorMatrix in="SourceAlpha" type="matrix" values="0 0 0 0 0 0 0 0 0 0 0 0 0 0 0 0 0 0 127 0" result="hardAlpha"/>
<feOffset dy="4"/>
<feGaussianBlur stdDeviation="2"/>
<feComposite in2="hardAlpha" operator="out"/>
<feColorMatrix type="matrix" values="0 0 0 0 0 0 0 0 0 0 0 0 0 0 0 0 0 0 0.25 0"/>
<feBlend mode="normal" in2="BackgroundImageFix" result="effect1_dropShadow"/>
<feBlend mode="normal" in="SourceGraphic" in2="effect1_dropShadow" result="shape"/>
</filter>
<clipPath id="clip0">
<rect width="108" height="90" fill="white" transform="translate(4)"/>
</clipPath>
</defs>
</svg>
