<svg width="160" height="47" viewBox="0 0 160 47" fill="none" xmlns="http://www.w3.org/2000/svg">
<g clip-path="url(#clip0)">
<path d="M24.239 43.4429C22.4745 44.7502 20.6186 45.9309 18.685 46.9762C18.6564 46.9911 18.6244 46.9989 18.592 46.9989C18.5596 46.9989 18.5277 46.9911 18.499 46.9762C17.22 46.3058 3.11502 38.6763 0.418017 26.8024C0.407431 26.7558 0.414121 26.707 0.436877 26.6648C0.459632 26.6227 0.496945 26.5901 0.541918 26.5731C0.586892 26.5561 0.636542 26.5557 0.68175 26.5721C0.726958 26.5885 0.764668 26.6206 0.788012 26.6624C2.71601 30.0874 7.06103 32.5878 10.17 34.2492C12.796 35.6514 15.855 36.7438 18.593 38.2413C20.885 39.3774 22.847 41.0759 24.293 43.1757C24.32 43.2187 24.3295 43.2703 24.3194 43.32C24.3094 43.3696 24.2806 43.4136 24.239 43.4429Z" fill="#ABABAB"/>
<path d="M37.184 6.11609V0.442791C37.184 0.325498 37.1372 0.21307 37.0537 0.130039C36.9703 0.0470074 36.8571 0.000230722 36.739 -3.22666e-05H23.078C22.9276 0.00581552 22.7826 0.05762 22.6631 0.148464C22.5435 0.239309 22.4551 0.364735 22.41 0.507402L21.459 3.99895C21.414 4.14162 21.3256 4.26692 21.206 4.35777C21.0864 4.44861 20.9414 4.50054 20.791 4.50639H14.581V2.70103C15.953 2.69687 17.3126 2.44241 18.592 1.9503C19.0341 1.81095 19.4398 1.57638 19.7801 1.26346C20.1205 0.950542 20.3871 0.566974 20.561 0.139979C20.5658 0.123601 20.5667 0.106334 20.5636 0.0895506C20.5606 0.0727667 20.5536 0.0569123 20.5434 0.0432439C20.5331 0.0295755 20.5198 0.0184417 20.5044 0.0107565C20.4891 0.00307127 20.4722 -0.0010337 20.455 -0.00112326H12.163C11.3312 -0.0824745 10.4928 0.0595223 9.73514 0.40994C8.9775 0.760357 8.3285 1.30644 7.85599 1.99103C6.88699 3.62758 6.94304 5.86978 7.03104 7.69997C5.51301 5.54137 4.7927 2.92821 4.99203 0.30278C4.99625 0.264532 4.99228 0.225829 4.98044 0.189195C4.96859 0.152561 4.94909 0.118821 4.92325 0.0901567C4.8974 0.0614928 4.86578 0.0385998 4.83041 0.0228786C4.79505 0.0071575 4.75673 -0.00107242 4.71799 -0.00112326H0.441986C0.325291 -0.00112326 0.213406 0.0449445 0.13089 0.126887C0.0483739 0.208829 0.00198364 0.319997 0.00198364 0.435881V1.55306C0.245984 5.4905 2.46103 15.8907 18.594 20.702C32.194 24.7586 34.219 30.981 34.615 32.0714C34.6195 32.0841 34.6276 32.0953 34.6385 32.1035C34.6493 32.1117 34.6623 32.1165 34.6759 32.1173C34.6894 32.1182 34.7029 32.115 34.7147 32.1082C34.7265 32.1015 34.736 32.0915 34.742 32.0794C38.51 24.9294 30.665 19.7814 30.665 19.7814C32.7549 19.9981 34.7702 20.6735 36.565 21.7587C36.6281 21.794 36.6995 21.8124 36.7719 21.8119C36.8444 21.8114 36.9155 21.792 36.9781 21.7558C37.0407 21.7195 37.0926 21.6676 37.1288 21.6052C37.1649 21.5428 37.1839 21.4721 37.184 21.4001V13.4676C37.184 13.3573 37.1587 13.2486 37.11 13.1495C37.0612 13.0504 36.9904 12.9636 36.9029 12.8958C36.8154 12.8279 36.7134 12.7807 36.6048 12.7578C36.4962 12.7349 36.3838 12.7368 36.276 12.7635C35.601 12.9323 34.776 13.0953 34.632 13.1231C32.6079 13.6692 30.457 13.5162 28.532 12.6891C28.0948 12.4779 27.7135 12.1679 27.4188 11.7839C27.1241 11.4 26.9241 10.9527 26.8349 10.4781C26.7458 10.0035 26.7699 9.51479 26.9054 9.05111C27.0408 8.58744 27.2839 8.16173 27.615 7.80822C28.2843 7.15893 29.0911 6.66607 29.9764 6.36544C30.8618 6.06482 31.8035 5.96399 32.733 6.07039C33.978 6.17585 35.2117 6.38588 36.421 6.69808C36.5108 6.72159 36.6049 6.72427 36.696 6.70608C36.787 6.68788 36.8727 6.64929 36.9464 6.5931C37.0201 6.53691 37.0797 6.46461 37.1209 6.38193C37.1621 6.29925 37.1837 6.20834 37.184 6.11609Z" fill="#ABABAB"/>
<path d="M28.185 40.1847C28.1658 40.2054 28.1424 40.2219 28.1163 40.233C28.0902 40.2441 28.062 40.2496 28.0337 40.249C28.0053 40.2485 27.9773 40.2419 27.9517 40.2298C27.9261 40.2176 27.9033 40.2002 27.885 40.1787C25.2488 37.2233 22.102 34.7597 18.593 32.9037C17.2942 32.1976 15.9549 31.5676 14.582 31.0169C5.9 27.5303 0.438007 23.8967 0.00100708 14.2185V13.9096C0.00135253 13.8679 0.014876 13.8275 0.0397034 13.7938C0.0645307 13.7602 0.0993777 13.7352 0.139313 13.7223C0.179248 13.7095 0.222273 13.7094 0.262238 13.7222C0.302202 13.735 0.337065 13.7599 0.361969 13.7935C3.54397 18.1172 7.60098 20.6455 12.528 23.0735C14.543 24.0665 16.589 24.8789 18.593 25.72C21.9654 26.9553 25.0936 28.7678 27.836 31.0755C28.5133 31.6177 29.0658 32.2979 29.4561 33.07C29.8465 33.8422 30.0657 34.6884 30.099 35.5518C30.1322 36.4152 29.9788 37.2755 29.649 38.075C29.3191 38.8746 28.8206 39.5947 28.187 40.1867L28.185 40.1847Z" fill="#ABABAB"/>
<path d="M59.9841 18.3129V21.8004H64.454V25.288H59.9841V32.2642H56.471V14.8242H65.2401V18.3118H59.9841V18.3129Z" fill="#ABABAB"/>
<path d="M72.952 26.1907V14.8242H76.465V26.1668C76.465 29.8252 82.1649 29.8252 82.1649 26.1668V14.8242H85.653V26.1907C85.651 34.4837 72.952 34.4837 72.952 26.1907Z" fill="#ABABAB"/>
<path d="M102.574 32.3635C90.9801 32.3635 90.3911 15.1182 102.574 14.6792C103.968 14.6495 105.355 14.8644 106.674 15.3138L106.257 18.8511C105.093 18.3645 103.833 18.1475 102.572 18.2165C95.4721 18.4608 95.7931 28.8759 102.572 28.8759C102.902 28.867 103.23 28.8339 103.555 28.7766V23.5323H107.117V31.1917C105.731 31.9683 104.165 32.3723 102.574 32.3635Z" fill="#ABABAB"/>
<path d="M115.886 32.2651V14.8252H119.398V32.2651H115.886Z" fill="#ABABAB"/>
<path d="M134.087 14.1907H134.455L141.849 32.2641H137.894L137.182 30.3863H131.361L130.673 32.2641H126.694L134.087 14.1907ZM135.88 27.1181L134.28 22.5809L132.634 27.1181H135.88Z" fill="#ABABAB"/>
<path d="M152.115 32.2622V18.31H147.743V14.8462H160V18.31H155.628V32.2622H152.115Z" fill="#ABABAB"/>
</g>
<defs>
<clipPath id="clip0">
<rect width="160" height="47" fill="white"/>
</clipPath>
</defs>
</svg>
