<svg width="160" height="48" viewBox="0 0 160 48" fill="none" xmlns="http://www.w3.org/2000/svg">
<g clip-path="url(#clip0)">
<path d="M68.7781 27.6067L64.4509 16.8408H61.6889L67.635 31.1585H69.935L75.8811 16.8408H73.1201L68.7781 27.6067Z" fill="#ABABAB"/>
<path d="M84.009 25.1833H90.8591V22.701H84.009V19.3179H91.4331V16.8357H81.4441V31.1534H91.5439V28.6721H84.0051L84.009 25.1833Z" fill="#ABABAB"/>
<path d="M107.641 26.5631L100.302 16.8408H98.089V31.1585H100.653V21.4191L107.992 31.1585H110.202V16.8408H107.638L107.641 26.5631Z" fill="#ABABAB"/>
<path d="M120.117 16.8408H117.553V31.1584H120.117V16.8408Z" fill="#ABABAB"/>
<path d="M131.653 16.8408L125.4 31.1585H128.188L129.566 27.932H136.148L137.526 31.1585H140.294L134.061 16.8408H131.653ZM130.602 25.4887L132.847 20.201L135.107 25.4887H130.602Z" fill="#ABABAB"/>
<path d="M157.888 16.8408L152.614 24.7075L147.34 16.8408H145.228V31.1585H147.792V21.9279L151.86 28.0089H153.367L157.436 21.9279V31.1585H160V16.8408H157.888Z" fill="#ABABAB"/>
<path d="M45.038 10.2041C43.7757 8.94238 42.2107 8.02404 40.492 7.53632C40.008 5.92414 39.1388 4.45329 37.9592 3.2503C36.7795 2.04732 35.3246 1.14815 33.7197 0.630076C32.1147 0.112004 30.4077 -0.00942014 28.7453 0.276165C27.0829 0.56175 25.5148 1.24577 24.176 2.26956C22.8236 1.19811 21.2272 0.475976 19.5283 0.167166C17.8293 -0.141643 16.0801 -0.0274987 14.4359 0.499277C12.7916 1.02605 11.303 1.94929 10.1019 3.18722C8.90076 4.42515 8.02428 5.93945 7.55 7.59612C5.93453 8.07948 4.46086 8.94695 3.25556 10.1239C2.05026 11.3009 1.14935 12.7522 0.63032 14.3532C0.111287 15.9542 -0.010421 17.6569 0.275706 19.3151C0.561833 20.9734 1.24728 22.5375 2.27302 23.8732C1.19699 25.2214 0.471261 26.8137 0.160472 28.509C-0.150317 30.2042 -0.0365238 31.9499 0.491526 33.5908C1.01958 35.2316 1.94561 36.717 3.18745 37.9149C4.42929 39.1128 5.94839 39.9863 7.60993 40.4576C8.24918 42.5864 9.55558 44.4547 11.3374 45.7885C13.1191 47.1223 15.2825 47.8512 17.51 47.8682H17.5939C19.8857 47.8736 22.1144 47.1194 23.93 45.7242C25.7826 47.2026 28.0856 48.0055 30.458 47.9999H30.54C34.9384 44.0719 39.7645 40.6484 44.9279 37.7937C46.713 36.0114 47.7885 33.6427 47.9541 31.1285C48.1196 28.6143 47.364 26.1256 45.828 24.1255C47.4295 22.1118 48.2338 19.5813 48.0882 17.0148C47.9426 14.4483 46.8571 12.0246 45.038 10.2041ZM44.059 22.2301L38.725 16.9085C40.1822 15.0572 40.9605 12.7643 40.931 10.4106C41.9951 10.8988 42.9377 11.6157 43.6912 12.5102C44.4448 13.4046 44.9906 14.4545 45.2896 15.5842C45.5886 16.7139 45.6334 17.8956 45.4206 19.0446C45.2078 20.1936 44.7429 21.2815 44.059 22.2301ZM38.364 38.2417C38.0982 38.2687 37.8312 38.2823 37.564 38.2826C35.5265 38.2876 33.5678 37.4969 32.107 36.0797C32.089 36.0617 32.0703 36.0448 32.051 36.0288L32 35.9809L31.993 35.974L32.01 35.9899C28.8783 33.2647 26.6668 29.6409 25.6779 25.6141C29.6753 26.5933 33.2767 28.7696 35.998 31.8506L36.065 31.9305L36.123 31.9962C36.14 32.0152 36.157 32.0332 36.175 32.0511L36.192 32.0681L36.233 32.105L36.244 32.115C37.0112 32.9285 37.5969 33.8951 37.9624 34.951C38.3278 36.0069 38.4646 37.1281 38.364 38.2407V38.2417ZM24.0529 42.3321L18.733 37.0255C21.0644 34.7499 22.8781 32.0007 24.051 28.9644C25.2229 32.0021 27.0363 34.7528 29.368 37.0295L24.0529 42.3321ZM16.153 35.931L16.127 35.955L16.044 36.0278C16.019 36.0498 15.996 36.0717 15.973 36.0957L15.968 36.1007L15.926 36.1466L15.9169 36.1566C14.4485 37.541 12.5034 38.3102 10.483 38.3055C10.2443 38.3055 10.0057 38.2948 9.76704 38.2736C9.65166 37.1566 9.77873 36.028 10.1397 34.9644C10.5007 33.9008 11.0871 32.9272 11.859 32.11L11.869 32.101L11.9169 32.0561L11.9329 32.0402C11.9519 32.0212 11.971 32.0012 11.989 31.9803L12.02 31.9453L12.033 31.9305L12.062 31.8974L12.086 31.8705C14.8097 28.777 18.4196 26.592 22.4279 25.6111C21.4449 29.6106 19.2562 33.2133 16.1569 35.9331L16.153 35.931ZM9.73298 9.74918C9.99878 9.72206 10.2658 9.70839 10.533 9.70826C11.565 9.70535 12.5873 9.90663 13.5408 10.3005C14.4944 10.6944 15.3601 11.2731 16.088 12.003H16.093C16.111 12.0209 16.129 12.0378 16.149 12.0547C19.2494 14.7716 21.4394 18.3724 22.423 22.3707C18.419 21.3935 14.8122 19.2134 12.09 16.1253L12.081 16.1153C12.065 16.0963 12.048 16.0794 12.031 16.0615L12.026 16.0565C11.2045 15.2372 10.5736 14.2476 10.1781 13.158C9.78249 12.0684 9.63193 10.9053 9.73701 9.75113L9.73298 9.74918ZM24.049 5.87224L29.258 11.072C26.9769 13.3264 25.2012 16.0379 24.048 19.0275C22.8938 16.0385 21.1177 13.3276 18.837 11.0731L24.049 5.87224ZM31.914 12.0867C31.945 12.0608 31.976 12.0338 32.005 12.0049C32.7403 11.2672 33.6151 10.6822 34.5786 10.2841C35.542 9.8859 36.5751 9.68235 37.618 9.68524C37.855 9.68524 38.092 9.69632 38.328 9.71727C38.4495 10.8752 38.3095 12.0457 37.918 13.1425C37.5266 14.2394 36.8937 15.2346 36.066 16.0554C36.0306 16.0904 35.9972 16.1274 35.966 16.1662C33.247 19.2349 29.6533 21.4017 25.666 22.3767C26.6472 18.3902 28.8292 14.7995 31.918 12.0877L31.914 12.0867ZM11.093 18.799C13.3529 21.0749 16.071 22.8466 19.0679 23.9969C16.0242 25.1665 13.2685 26.976 10.988 29.3026L5.77693 24.1036L11.093 18.799ZM37.109 29.3045C34.8275 26.9765 32.0704 25.166 29.025 23.996C32.0224 22.8459 34.7413 21.0745 37.002 18.799L42.32 24.1046L37.109 29.3045ZM36.0679 4.97224C36.6999 5.60066 37.2191 6.33266 37.603 7.13626C35.2647 7.13333 32.9935 7.91554 31.155 9.35703L25.932 4.14227C27.4476 3.06243 29.2978 2.55341 31.154 2.70555C33.0102 2.8577 34.7523 3.66117 36.071 4.97334L36.0679 4.97224ZM22.2769 4.03449L16.9429 9.35605C15.1171 7.92836 12.8629 7.15528 10.543 7.16122H10.431C10.92 6.09901 11.6385 5.15789 12.5351 4.40545C13.4317 3.653 14.4841 3.10785 15.6168 2.80907C16.7495 2.5103 17.9344 2.46527 19.0866 2.6773C20.2388 2.88934 21.3296 3.35317 22.281 4.03546L22.2769 4.03449ZM4.977 12.0069C5.60653 11.378 6.33867 10.8606 7.14204 10.4765C7.14348 12.8085 7.92741 15.0728 9.36897 16.9085L4.14595 22.1192C3.06082 20.6088 2.5488 18.7631 2.701 16.9109C2.8532 15.0588 3.65978 13.3208 4.977 12.0069ZM3.94795 25.8885L9.279 31.2061C7.88466 33.0388 7.14152 35.2824 7.16694 37.5832C6.11346 37.1015 5.1786 36.3954 4.42805 35.5145C3.6775 34.6336 3.12955 33.5995 2.8227 32.4846C2.51586 31.3697 2.45763 30.2013 2.65205 29.0615C2.84646 27.9218 3.28874 26.8384 3.94795 25.8875V25.8885ZM12.025 43.0196C11.3942 42.3903 10.8756 41.6585 10.491 40.8555C12.777 40.8583 15.0005 40.1113 16.819 38.7295L22.036 43.9344C20.521 44.9634 18.6946 45.4349 16.8696 45.2682C15.0445 45.1015 13.3343 44.3069 12.0319 43.0205L12.025 43.0196ZM25.945 44.0451L31.274 38.7286C33.0792 40.0974 35.2855 40.836 37.5529 40.8306H37.669C37.2754 41.6851 36.7314 42.4623 36.0629 43.1253C34.7471 44.4264 33.0183 45.23 31.1733 45.3981C29.3283 45.5661 27.4822 45.0881 25.952 44.0461L25.945 44.0451ZM43.111 35.9879C42.4811 36.6172 41.7483 37.1348 40.944 37.5184C40.9412 35.2399 40.1921 33.0247 38.811 31.2101L44.03 26.0032C45.0632 27.5146 45.5373 29.3375 45.3709 31.1594C45.2045 32.9813 44.408 34.6888 43.118 35.989L43.111 35.9879Z" fill="#ABABAB"/>
</g>
<defs>
<clipPath id="clip0">
<rect width="160" height="48" fill="white"/>
</clipPath>
</defs>
</svg>
