<svg xmlns="http://www.w3.org/2000/svg" width="94.048" height="90.687" viewBox="0 0 94.048 90.687"><g transform="translate(0 79.217)"><g transform="translate(0)"><path d="M258.476,435.051l-.879-2.042h-3.963l-.88,2.042h-2.245l4.085-9.455h2.042l4.085,9.455Zm-2.854-6.641-1.19,2.746H256.8Z" transform="translate(-250.509 -425.38)" fill="#868787"/><path d="M307.264,429.7a4.822,4.822,0,0,1-.751,2.651,4.635,4.635,0,0,1-2.022,1.759.972.972,0,0,0,.385.345,1.141,1.141,0,0,0,.548.142,1.8,1.8,0,0,0,.555-.088,1.5,1.5,0,0,0,.433-.21,1.969,1.969,0,0,0,.5-.555l1.1,1.312a3.837,3.837,0,0,1-2.908,1.231,3.192,3.192,0,0,1-1.6-.446,3,3,0,0,1-1.2-1.258,4.858,4.858,0,0,1-3.53-1.4,4.948,4.948,0,0,1,0-6.966,5.152,5.152,0,0,1,7.061,0A4.672,4.672,0,0,1,307.264,429.7Zm-2.151.007a3.091,3.091,0,0,0-.812-2.157,2.675,2.675,0,0,0-3.99,0,3.265,3.265,0,0,0,0,4.308,2.689,2.689,0,0,0,3.99,0A3.067,3.067,0,0,0,305.113,429.7Z" transform="translate(-284.416 -424.813)" fill="#868787"/><path d="M351.792,432.609a1.727,1.727,0,0,0,1.42.656,1.708,1.708,0,0,0,1.413-.656,2.808,2.808,0,0,0,.521-1.792V425.6h2.11v5.289a4.2,4.2,0,0,1-1.136,3.158,4.387,4.387,0,0,1-5.823-.007,4.188,4.188,0,0,1-1.143-3.151V425.6h2.11v5.221A2.785,2.785,0,0,0,351.792,432.609Z" transform="translate(-321.937 -425.38)" fill="#868787"/><path d="M398.889,435.051l-.88-2.042h-3.963l-.88,2.042h-2.245l4.085-9.455h2.042l4.085,9.455Zm-2.854-6.641-1.19,2.746h2.367Z" transform="translate(-352.181 -425.38)" fill="#868787"/><path d="M441.158,427.423v7.628h-2.11v-7.628H436.37V425.6h7.466v1.826Z" transform="translate(-385.09 -425.381)" fill="#868787"/><path d="M486.492,428.735a2.784,2.784,0,0,1-1.8,2.935l2.394,3.381h-2.6l-2.1-3.016h-1.461v3.016h-2.11V425.6h3.585a5.139,5.139,0,0,1,3.144.744A2.871,2.871,0,0,1,486.492,428.735Zm-2.543,1.123a1.43,1.43,0,0,0,.392-1.116,1.2,1.2,0,0,0-.406-1.048,2.6,2.6,0,0,0-1.42-.284h-1.582v2.8h1.542A2.267,2.267,0,0,0,483.949,429.858Z" transform="translate(-415.83 -425.381)" fill="#868787"/><path d="M531.085,425.6v1.88h-4.707v1.948h4.234v1.8h-4.234v1.961h4.856v1.866h-6.965V425.6Z" transform="translate(-448.737 -425.381)" fill="#868787"/><path d="M572.951,425.6v1.88h-4.706v1.948h4.233v1.8h-4.233v1.961H573.1v1.866h-6.966V425.6Z" transform="translate(-479.052 -425.381)" fill="#868787"/></g></g><g transform="translate(11.799)"><path d="M368.624,319.684c-4.945-2.6-8.524.463-11.9,2.8a8.937,8.937,0,0,1-10.135,0l-2.334-1.618a11.666,11.666,0,0,0-13.231,0l-2.334,1.618a8.938,8.938,0,0,1-10.136,0c-3.354-2.325-6.508-5.13-11.727-2.956a1.358,1.358,0,1,0,1.045,2.508c3.731-1.556,5.839.4,9.134,2.68a11.665,11.665,0,0,0,13.231,0l2.334-1.618a8.938,8.938,0,0,1,10.136,0c2.611,1.81,4.809,3.675,8.95,3.675,7.9,0,10-7.686,15.7-4.685a1.358,1.358,0,1,0,1.265-2.4Z" transform="translate(-302.485 -268.752)" fill="#60b59c"/><path d="M377.8,350.962c-.171.137-.347.291-.551.47a11.679,11.679,0,0,1-8.766,3.25c-8.4-.226-10.6-8.315-20.436-2.385a18.393,18.393,0,0,1-7.554,2.385c-5.566.152-8.037-2.692-9.317-3.72a1.358,1.358,0,1,0-1.7,2.118c.125.1.281.237.461.4a14.322,14.322,0,0,0,10.629,3.922,21.1,21.1,0,0,0,8.883-2.775,8.03,8.03,0,0,1,10.078,0,21.1,21.1,0,0,0,8.883,2.774c6.125.164,8.889-2.552,11.091-4.317a1.358,1.358,0,0,0-1.7-2.119Z" transform="translate(-319.117 -291.517)" fill="#60b59c"/><path d="M409.862,380.475c-4.028-2.793-7.022-3.087-11.461,0a1.358,1.358,0,1,0,1.552,2.23c3.417-2.38,5.226-2.172,8.362,0a1.358,1.358,0,1,0,1.547-2.232Z" transform="translate(-368.974 -311.894)" fill="#60b59c"/><path d="M305.673,186.036c2.511,1.741,4.772,3.679,9.124,3.679,5.177,0,10.163-3.434,10.681-9.478.01-.157.006-7.978.006-8.134,0-4.259-5.219-8.18-8.541-11.913-.279-3.15-.632-5.827-.978-8.224.192-.182-.187.347,6.1-9.132a1.358,1.358,0,0,0-2.264-1.5L315.378,148c-.191-1.3-.371-2.576-.525-3.885a1.358,1.358,0,0,0-2.7.318c.494,4.2,1.231,8.005,1.8,13.181-3.53-2.94-4.644-4.04-9.092-7.428a1.358,1.358,0,0,0-1.645,2.161c1.85,1.409,3.115,2.417,4.219,3.328l-6.572-.357a1.358,1.358,0,0,0-.147,2.712l10.166.552c1,.848,2.193,1.841,3.8,3.145,2.763,3.18,7.19,6.722,7.969,9.575a13.32,13.32,0,0,0-7.93-3.477,28.185,28.185,0,0,0-4.57-5.318,1.358,1.358,0,1,0-1.793,2.041,26.745,26.745,0,0,1,2.893,3.095,29.868,29.868,0,0,0-4.044.322l-8.408-6.99a1.358,1.358,0,0,0-1.737,2.089l5.508,4.579h-7.525a1.358,1.358,0,1,0,0,2.716h8l-9.147,5.819a1.358,1.358,0,0,0,1.458,2.292l12.3-7.825a25.292,25.292,0,0,1,7.955.067c-2.588,2.454-5.539,5.718-5.694,5.89a1.358,1.358,0,0,0,2.017,1.82c.043-.047,3.975-4.4,6.619-6.723,4.467,2.305,4.213,5.86,4.213,8.358-.307,4.96-4.928,6.438-5.455,6.591a9.365,9.365,0,0,1-7.759-1.229l-2.334-1.618a12.269,12.269,0,0,0-12.361-.557,1.358,1.358,0,0,0,1.255,2.41A9.618,9.618,0,0,1,305.673,186.036Z" transform="translate(-293.272 -139.889)" fill="#60b59c"/><path d="M434.073,172.162a1.358,1.358,0,0,0,1.843-2,28.5,28.5,0,0,0-9.9-6.429l5.464-.987a1.358,1.358,0,0,0-.483-2.674c-11.77,2.127-11.1,1.992-11.293,2.066a14.637,14.637,0,0,0-2.436-.009c1.935-1.952,3.724-3.738,5.263-5.265.195.033-.253.018,6.788.043a1.358,1.358,0,1,0,.009-2.716l-4.077-.015c1.682-1.654,2.693-2.634,2.718-2.657a1.358,1.358,0,1,0-1.889-1.952c-.035.034-2.1,2.039-5.269,5.177.356-3.133.53-5.29,1.108-9.446a1.358,1.358,0,0,0-2.691-.374c-.774,5.567-.846,7.713-1.535,12.927-1.307,1.308-2.713,2.725-4.179,4.213l-.6-8.519a1.358,1.358,0,0,0-2.71.19c.782,11.159.726,10.456.758,10.611a15.033,15.033,0,0,0-3.712,3.444c-.7-2.448-1.585-3.3-2.972-4.987-.959-1.169-2.19-2.669-3.618-4.378l1.314-3.1c4.9-4.121,12.113-10.372,14.237-12.214a1.358,1.358,0,0,0-1.78-2.052c-1.575,1.366-5.952,5.159-10.1,8.7l4.144-9.784a1.358,1.358,0,0,0-2.5-1.059l-3.155,7.451c-.391-2.75-.783-5.058-1.15-7.515a1.358,1.358,0,1,0-2.687.4c.559,3.74,1.173,7.129,1.731,12.085L398.7,156.1q-.763-.9-1.573-1.845l-.841-6.97a1.358,1.358,0,1,0-2.7.325l.94,7.79c4.321,5.017,7.2,8.606,8.894,10.643.5.6,2.1,2.981,1.641,8.207a28.776,28.776,0,0,0-.036,3.4,10.351,10.351,0,0,0,6.4,9.419,11.786,11.786,0,0,0,3.271.455c4.325,0,6.569-1.908,9.124-3.679a8.244,8.244,0,0,1,9.706.033,1.358,1.358,0,0,0,1.548-2.232,11.007,11.007,0,0,0-12.8-.033l-2.334,1.618a9.36,9.36,0,0,1-7.758,1.229,7.649,7.649,0,0,1-4.441-6.927c-.259-5.979,1.131-7.979,3.4-9.914a10.912,10.912,0,0,1,6.786-2.8l5.607,8.764a1.358,1.358,0,1,0,2.288-1.464l-4.467-6.983q.6.129,1.221.308A25.924,25.924,0,0,1,434.073,172.162Z" transform="translate(-365.901 -137.697)" fill="#60b59c"/></g></svg>