<svg xmlns="http://www.w3.org/2000/svg" width="160" height="48.112" viewBox="0 0 160 48.112"><g transform="translate(61.689 16.88)"><path d="M2414.633,1545.308l-4.327-10.791h-2.762l5.946,14.351h2.3l5.946-14.351h-2.761Z" transform="translate(-2407.544 -1534.517)" fill="#877e80"/><path d="M2835.01,1542.879h6.85v-2.488h-6.85V1537h7.424v-2.488h-9.989v14.351h10.1v-2.487h-7.539Z" transform="translate(-2812.69 -1534.517)" fill="#877e80"/><path d="M3200.052,1544.262l-7.339-9.745H3190.5v14.351h2.564v-9.762l7.339,9.762h2.21v-14.351h-2.564Z" transform="translate(-3154.1 -1534.517)" fill="#877e80"/><rect width="2.564" height="14.351" transform="translate(55.864 0)" fill="#877e80"/><path d="M3784.111,1534.517l-6.253,14.351h2.788l1.378-3.234h6.582l1.378,3.234h2.768l-6.233-14.351Zm-1.051,8.668,2.245-5.3,2.26,5.3Z" transform="translate(-3714.147 -1534.517)" fill="#877e80"/><path d="M4216.932,1534.517l-5.274,7.885-5.274-7.885h-2.112v14.351h2.564v-9.252l4.068,6.095h1.507l4.069-6.095v9.252h2.564v-14.351Z" transform="translate(-4120.733 -1534.517)" fill="#877e80"/></g><path d="M1125.774,1181.684a10.471,10.471,0,0,0-4.546-2.674,10.417,10.417,0,0,0-16.316-5.279,10.5,10.5,0,0,0-16.626,5.339,10.418,10.418,0,0,0-5.277,16.315,10.489,10.489,0,0,0,5.337,16.623,10.418,10.418,0,0,0,9.9,7.428h.084a10.344,10.344,0,0,0,6.336-2.149,10.411,10.411,0,0,0,6.528,2.281h.082a78.948,78.948,0,0,1,14.388-10.23,10.418,10.418,0,0,0,.9-13.7A10.511,10.511,0,0,0,1125.774,1181.684Zm-.979,12.054-5.334-5.334a10.336,10.336,0,0,0,2.206-6.513,7.938,7.938,0,0,1,3.128,11.847Zm-5.695,16.049a7.973,7.973,0,0,1-.8.041,7.8,7.8,0,0,1-5.457-2.208q-.027-.027-.056-.051l-.051-.048-.007-.007.017.016h0a20.169,20.169,0,0,1-6.332-10.4,20.163,20.163,0,0,1,10.32,6.251l.067.08.058.066h0c.017.019.034.037.052.055l.017.017.041.037.011.01A7.921,7.921,0,0,1,1119.1,1209.786Zm-14.311,4.1-5.32-5.319a22.747,22.747,0,0,0,5.318-8.08,22.741,22.741,0,0,0,5.317,8.084Zm-7.9-6.416-.026.024-.083.073c-.025.022-.048.044-.071.068l-.005.005-.042.046-.009.01a7.885,7.885,0,0,1-5.434,2.154q-.358,0-.716-.032a7.837,7.837,0,0,1,2.092-6.178l.01-.009.048-.045.016-.016c.019-.019.038-.039.056-.06l.031-.035.013-.015h0l.029-.033.024-.027a20.157,20.157,0,0,1,10.342-6.274A20.179,20.179,0,0,1,1096.893,1207.473Zm-6.42-26.243a7.9,7.9,0,0,1,.8-.041,7.805,7.805,0,0,1,5.555,2.3l.005,0c.018.018.036.035.056.052a20.157,20.157,0,0,1,6.274,10.34,20.131,20.131,0,0,1-10.333-6.26l-.009-.01,0,0c-.016-.019-.033-.036-.05-.054l-.005-.005A7.923,7.923,0,0,1,1090.473,1181.23Zm14.316-3.886,5.209,5.212a22.7,22.7,0,0,0-5.21,7.974,22.725,22.725,0,0,0-5.211-7.973Zm7.865,6.229h0c.031-.026.062-.053.091-.082a7.885,7.885,0,0,1,5.613-2.325c.237,0,.474.011.71.032a7.81,7.81,0,0,1-2.262,6.353,1.3,1.3,0,0,0-.1.111,20.149,20.149,0,0,1-10.3,6.225A20.133,20.133,0,0,1,1112.654,1183.572Zm-20.821,6.728a22.7,22.7,0,0,0,7.975,5.21,22.725,22.725,0,0,0-8.08,5.318l-5.211-5.211Zm26.016,10.53a22.729,22.729,0,0,0-8.084-5.321,22.709,22.709,0,0,0,7.977-5.209l5.318,5.318Zm-1.041-24.389a7.8,7.8,0,0,1,1.535,2.169,10.414,10.414,0,0,0-6.448,2.226l-5.223-5.227A7.876,7.876,0,0,1,1116.807,1176.441Zm-13.791-.94-5.334,5.334a10.332,10.332,0,0,0-6.4-2.2h-.112a7.94,7.94,0,0,1,11.85-3.133Zm-17.3,7.991a7.861,7.861,0,0,1,2.165-1.534,10.464,10.464,0,0,0,2.227,6.447l-5.223,5.223a7.859,7.859,0,0,1,.831-10.136Zm-1.029,13.914,5.331,5.33a10.383,10.383,0,0,0-2.112,6.392,7.932,7.932,0,0,1-3.219-11.723Zm8.077,17.171a7.858,7.858,0,0,1-1.534-2.169,10.423,10.423,0,0,0,6.328-2.131l5.217,5.217A7.9,7.9,0,0,1,1092.768,1214.577Zm13.92,1.028,5.329-5.329a10.336,10.336,0,0,0,6.279,2.107h.116a7.886,7.886,0,0,1-1.606,2.3A7.976,7.976,0,0,1,1106.688,1215.605Zm17.166-8.076a7.843,7.843,0,0,1-2.167,1.534,10.477,10.477,0,0,0-2.133-6.323l5.219-5.219A7.9,7.9,0,0,1,1123.854,1207.529Z" transform="translate(-1080.736 -1171.456)" fill="#877e80"/></svg>