<svg xmlns="http://www.w3.org/2000/svg" width="160" height="47.329" viewBox="0 0 160 47.329"><path d="M931.35,1789.271a46.334,46.334,0,0,1-5.554,3.558.2.2,0,0,1-.186,0c-1.279-.675-15.384-8.358-18.081-20.315a.2.2,0,0,1,.37-.141c1.928,3.449,6.273,5.967,9.382,7.64,2.626,1.412,5.685,2.512,8.423,4.02a15.046,15.046,0,0,1,5.7,4.969A.2.2,0,0,1,931.35,1789.271Z" transform="translate(-907.111 -1745.524)" fill="#baa952"/><path d="M936.467,1243.86v-5.713a.446.446,0,0,0-.445-.446H922.361a.73.73,0,0,0-.668.511l-.951,3.516a.73.73,0,0,1-.668.511h-6.21v-1.818a11.2,11.2,0,0,0,4.011-.756,3.153,3.153,0,0,0,1.969-1.823.111.111,0,0,0-.106-.142h-8.292a4.667,4.667,0,0,0-4.307,2.006c-.969,1.648-.913,3.906-.825,5.749a11.5,11.5,0,0,1-2.039-7.449.276.276,0,0,0-.274-.306h-4.276a.44.44,0,0,0-.44.44v1.125c.244,3.965,2.459,14.438,18.592,19.283,13.6,4.085,15.625,10.351,16.021,11.449a.069.069,0,0,0,.127.008c3.768-7.2-4.077-12.384-4.077-12.384a14.175,14.175,0,0,1,5.9,1.991.415.415,0,0,0,.619-.361v-7.988a.731.731,0,0,0-.908-.709c-.675.17-1.5.334-1.644.362a9.252,9.252,0,0,1-6.1-.437,3.11,3.11,0,0,1-.917-4.915,6.293,6.293,0,0,1,5.118-1.75,22.135,22.135,0,0,1,3.688.632A.608.608,0,0,0,936.467,1243.86Z" transform="translate(-899.283 -1237.701)" fill="#baa952"/><path d="M927.47,1540.267a.2.2,0,0,1-.3-.006,33.367,33.367,0,0,0-9.292-7.326,37.948,37.948,0,0,0-4.011-1.9c-8.682-3.511-14.144-7.17-14.581-16.916v-.311a.2.2,0,0,1,.361-.117c3.182,4.354,7.239,6.9,12.166,9.345,2.015,1,4.061,1.818,6.065,2.665a30.768,30.768,0,0,1,9.243,5.393,6.089,6.089,0,0,1,.351,9.175Z" transform="translate(-899.285 -1499.801)" fill="#baa952"/><g transform="translate(56.471 14.29)"><path d="M2031.456,1539.586v3.512h4.47v3.512h-4.47v7.025h-3.513v-17.562h8.769v3.512h-5.256Z" transform="translate(-2027.943 -1535.435)" fill="#51544f"/><path d="M2357.343,1547.519v-11.446h3.513v11.422c0,3.684,5.7,3.684,5.7,0v-11.422h3.488v11.446C2370.042,1555.87,2357.343,1555.87,2357.343,1547.519Z" transform="translate(-2340.862 -1535.435)" fill="#51544f"/><path d="M2780.071,1550.821c-11.594,0-12.183-17.366,0-17.808a11.844,11.844,0,0,1,4.1.639l-.417,3.562a8.319,8.319,0,0,0-3.685-.639c-7.1.246-6.779,10.734,0,10.734a6.647,6.647,0,0,0,.983-.1v-5.281h3.562v7.713A9.141,9.141,0,0,1,2780.071,1550.821Z" transform="translate(-2733.968 -1532.521)" fill="#51544f"/><path d="M3215.455,1553.636v-17.562h3.512v17.562Z" transform="translate(-3156.04 -1535.435)" fill="#51544f"/><path d="M3438.845,1523.31h.368l7.394,18.2h-3.955l-.712-1.891h-5.821l-.688,1.891h-3.979Zm1.793,13.018-1.6-4.569-1.646,4.569Z" transform="translate(-3361.229 -1523.31)" fill="#51544f"/><path d="M3856.538,1554.1v-14.05h-4.372v-3.488h12.257v3.488h-4.372v14.05Z" transform="translate(-3760.894 -1535.902)" fill="#51544f"/></g></svg>