<svg width="141" height="68" viewBox="0 0 141 68" fill="none" xmlns="http://www.w3.org/2000/svg">
<g clip-path="url(#clip0)">
<path d="M130.459 27.7659V30.5653H134.205V40.2362H137.201V30.5653H141V27.7659H130.459Z" fill="#ABABAB"/>
<path d="M107.357 37.4368V35.231H112.118V32.6103H107.357V30.5653H113.438V27.7659H104.36V40.2332H113.544V37.4368H107.357Z" fill="#ABABAB"/>
<path d="M96.8014 27.7659V30.616C96.8014 32.8783 96.8382 35.0831 96.8193 35.0831H96.8014C96.7845 35.0831 94.876 32.3939 94.0729 31.3257L91.4159 27.7639H88.5979V40.2312H91.5948V37.4706C91.5948 34.7456 91.5591 32.8217 91.577 32.8217H91.5948C91.6127 32.8217 93.2847 35.1913 94.4297 36.7578L96.9804 40.2322H99.7984V27.7659H96.8014Z" fill="#ABABAB"/>
<path d="M81.0345 27.7659V30.616C81.0345 32.8783 81.0703 35.0831 81.0514 35.0831H81.0345C81.0176 35.0831 79.1081 32.3939 78.3059 31.3257L75.6489 27.7639H72.8309V40.2312H75.8309V37.4706C75.8309 34.7456 75.7951 32.8217 75.813 32.8217H75.8309C75.8487 32.8217 77.5207 35.1913 78.6658 36.7578L81.2164 40.2322H84.0344V27.7659H81.0384H81.0345Z" fill="#ABABAB"/>
<path d="M59.3293 34C59.3616 33.3426 59.5865 32.7092 59.976 32.1782C60.3654 31.6473 60.9024 31.2423 61.5203 31.0133C62.1382 30.7844 62.8097 30.7417 63.4517 30.8904C64.0937 31.0392 64.6778 31.3729 65.1316 31.8502C65.5854 32.3274 65.8889 32.9272 66.0045 33.5752C66.1201 34.2231 66.0427 34.8907 65.7818 35.4951C65.521 36.0995 65.0882 36.6142 64.5372 36.9752C63.9862 37.3362 63.3411 37.5278 62.6821 37.526C62.2225 37.5407 61.765 37.458 61.3397 37.2836C60.9143 37.1091 60.5307 36.8467 60.2141 36.5137C59.8974 36.1807 59.6549 35.7846 59.5024 35.3513C59.3499 34.9181 59.2909 34.4576 59.3293 34ZM56.2081 34C56.2099 35.2805 56.5919 36.5318 57.3057 37.5955C58.0196 38.6593 59.0333 39.4877 60.2186 39.9761C61.404 40.4644 62.7077 40.5908 63.9649 40.3392C65.2222 40.0875 66.3765 39.4692 67.2818 38.5624C68.1872 37.6556 68.803 36.501 69.0513 35.2447C69.2996 33.9884 69.1692 32.6868 68.6768 31.5044C68.1843 30.3221 67.3518 29.3121 66.2846 28.6023C65.2174 27.8925 63.9634 27.5147 62.6811 27.5166C61.8253 27.5015 60.9752 27.659 60.1818 27.9797C59.3883 28.3004 58.6679 28.7777 58.0635 29.383C57.4592 29.9883 56.9833 30.7093 56.6645 31.5026C56.3457 32.2959 56.1905 33.1453 56.2081 34Z" fill="#ABABAB"/>
<path d="M51.4448 36.4936C50.951 36.9866 50.3219 37.3224 49.637 37.4584C48.9522 37.5943 48.2423 37.5244 47.5972 37.2575C46.9521 36.9906 46.4008 36.5387 46.0129 35.9588C45.6249 35.379 45.4179 34.6973 45.4179 34C45.4179 33.3026 45.6249 32.6209 46.0129 32.0411C46.4008 31.4612 46.9521 31.0093 47.5972 30.7424C48.2423 30.4755 48.9522 30.4056 49.637 30.5416C50.3219 30.6775 50.951 31.0132 51.4448 31.5063L53.5382 29.4147C52.6303 28.5079 51.4736 27.8904 50.2143 27.6402C48.955 27.39 47.6497 27.5184 46.4634 28.0091C45.2772 28.4998 44.2632 29.3308 43.5499 30.397C42.8365 31.4632 42.4558 32.7167 42.4558 33.999C42.4558 35.2813 42.8365 36.5347 43.5499 37.6009C44.2632 38.6671 45.2772 39.4981 46.4634 39.9888C47.6497 40.4795 48.955 40.6079 50.2143 40.3577C51.4736 40.1075 52.6303 39.49 53.5382 38.5832L51.4448 36.4936Z" fill="#ABABAB"/>
<path d="M125.654 36.4936C125.161 36.9866 124.532 37.3224 123.847 37.4584C123.162 37.5943 122.452 37.5244 121.807 37.2575C121.162 36.9906 120.61 36.5387 120.222 35.9588C119.835 35.379 119.627 34.6973 119.627 34C119.627 33.3026 119.835 32.6209 120.222 32.0411C120.61 31.4612 121.162 31.0093 121.807 30.7424C122.452 30.4755 123.162 30.4056 123.847 30.5416C124.532 30.6775 125.161 31.0132 125.654 31.5063L127.749 29.4147C126.841 28.5079 125.684 27.8904 124.425 27.6402C123.166 27.39 121.86 27.5184 120.674 28.0091C119.488 28.4998 118.474 29.3308 117.76 30.397C117.047 31.4632 116.666 32.7167 116.666 33.999C116.666 35.2813 117.047 36.5347 117.76 37.6009C118.474 38.6671 119.488 39.4981 120.674 39.9888C121.86 40.4795 123.166 40.6079 124.425 40.3577C125.684 40.1075 126.841 39.49 127.749 38.5832L125.654 36.4936Z" fill="#ABABAB"/>
<path d="M27.6682 30.5145L8.41723 11.2899C7.95938 10.8327 7.41583 10.47 6.81762 10.2225C6.21941 9.97503 5.57825 9.84766 4.93075 9.84766C4.28325 9.84766 3.64209 9.97503 3.04388 10.2225C2.44566 10.47 1.90212 10.8327 1.44427 11.2899C0.986415 11.7472 0.623226 12.29 0.375438 12.8874C0.127651 13.4848 0.00012207 14.1252 0.00012207 14.7718C0.00012207 15.4185 0.127651 16.0588 0.375438 16.6562C0.623226 17.2536 0.986415 17.7965 1.44427 18.2537L17.2082 33.9969L20.6952 30.5145C21.153 30.0571 21.6965 29.6943 22.2947 29.4467C22.8929 29.1992 23.5341 29.0718 24.1817 29.0718C24.8292 29.0718 25.4705 29.1992 26.0687 29.4467C26.6669 29.6943 27.2104 30.0571 27.6682 30.5145Z" fill="#ABABAB"/>
<path d="M24.181 38.9248C23.5332 38.9256 22.8916 38.7985 22.2932 38.5507C21.6948 38.303 21.1513 37.9396 20.694 37.4814L17.208 34.001L1.44804 49.7422C0.981931 50.1977 0.610905 50.7409 0.356421 51.3405C0.101938 51.9401 -0.0309462 52.5841 -0.0345324 53.2353C-0.0381186 53.8866 0.0876638 54.532 0.335528 55.1344C0.583393 55.7367 0.94842 56.284 1.40948 56.7445C1.87055 57.2051 2.41849 57.5697 3.0216 57.8173C3.62471 58.0649 4.271 58.1906 4.92308 58.1871C5.57516 58.1837 6.22007 58.051 6.82049 57.797C7.42091 57.5429 7.96491 57.1724 8.421 56.707L27.672 37.4824C27.2141 37.9408 26.6699 38.3043 26.0708 38.5518C25.4716 38.7994 24.8294 38.9261 24.181 38.9248Z" fill="#ABABAB"/>
<path d="M24.1812 38.9248C24.9922 38.9248 25.7906 38.725 26.5058 38.3432C27.221 37.9614 27.8308 37.4094 28.2814 36.736C28.7319 36.0626 29.0092 35.2887 29.0887 34.4827C29.1682 33.6767 29.0474 32.8636 28.737 32.1153C28.4267 31.3671 27.9364 30.7069 27.3095 30.1931C26.6826 29.6793 25.9386 29.3278 25.1432 29.1698C24.3479 29.0118 23.5257 29.0521 22.7497 29.2872C21.9737 29.5223 21.2677 29.9449 20.6943 30.5176L17.2073 34L20.6943 37.4824C21.1516 37.9404 21.6952 38.3036 22.2936 38.5511C22.892 38.7987 23.5335 38.9256 24.1812 38.9248Z" fill="#ABABAB"/>
<path d="M30.5578 27.6323C30.0998 27.1751 29.7365 26.6323 29.4886 26.0349C29.2407 25.4374 29.1131 24.7971 29.1131 24.1504C29.1131 23.5037 29.2407 22.8633 29.4886 22.2659C29.7365 21.6684 30.0998 21.1256 30.5578 20.6685L34.0448 17.1861L18.2808 1.44382C17.3511 0.544844 16.1048 0.0468619 14.8108 0.0572894C13.5168 0.0677169 12.2787 0.585721 11.3636 1.49957C10.4486 2.41341 9.92991 3.64985 9.91947 4.94218C9.90903 6.23451 10.4077 7.47916 11.3078 8.40763L30.5578 27.6323Z" fill="#ABABAB"/>
<path d="M37.5318 27.6318L46.5534 18.622C47.4615 17.695 47.9669 16.4477 47.9597 15.1509C47.9526 13.854 47.4335 12.6123 46.5152 11.6954C45.5969 10.7784 44.3535 10.2602 43.055 10.2532C41.7564 10.2463 40.5075 10.7512 39.5794 11.6583L34.0448 17.1856L37.5318 20.668C37.9898 21.1252 38.3531 21.668 38.601 22.2654C38.8489 22.8629 38.9765 23.5032 38.9765 24.1499C38.9765 24.7966 38.8489 25.437 38.601 26.0344C38.3531 26.6318 37.9898 27.1746 37.5318 27.6318Z" fill="#ABABAB"/>
<path d="M30.5578 27.6317C31.4875 28.5307 32.7337 29.0287 34.0278 29.0183C35.3218 29.0079 36.5599 28.4898 37.4749 27.576C38.39 26.6622 38.9087 25.4257 38.9191 24.1334C38.9295 22.8411 38.4309 21.5964 37.5307 20.6679L34.0438 17.1855L30.5568 20.6679C30.0989 21.1252 29.7358 21.6681 29.4881 22.2656C29.2403 22.863 29.1129 23.5034 29.113 24.1501C29.1131 24.7967 29.2407 25.437 29.4886 26.0344C29.7365 26.6318 30.0998 27.1746 30.5578 27.6317Z" fill="#ABABAB"/>
<path d="M30.5578 40.3672L11.3079 59.5918C10.85 60.0491 10.4868 60.5919 10.239 61.1893C9.99124 61.7868 9.86371 62.4271 9.86371 63.0737C9.86371 63.7204 9.99124 64.3607 10.239 64.9581C10.4868 65.5556 10.85 66.0984 11.3079 66.5556C11.7657 67.0129 12.3093 67.3756 12.9075 67.623C13.5057 67.8705 14.1468 67.9979 14.7943 67.9979C15.4418 67.9979 16.083 67.8705 16.6812 67.623C17.2794 67.3756 17.823 67.0129 18.2808 66.5556L34.0448 50.8134L30.5578 47.331C30.0999 46.8738 29.7367 46.3309 29.4889 45.7335C29.2411 45.1361 29.1135 44.4958 29.1135 43.8491C29.1135 43.2024 29.2411 42.5621 29.4889 41.9647C29.7367 41.3672 30.0999 40.8244 30.5578 40.3672Z" fill="#ABABAB"/>
<path d="M37.5318 40.3672C37.9898 40.8244 38.3532 41.3673 38.6011 41.9648C38.849 42.5624 38.9766 43.2028 38.9766 43.8496C38.9766 44.4964 38.849 45.1368 38.6011 45.7343C38.3532 46.3319 37.9898 46.8748 37.5318 47.332L34.0448 50.8134L39.5794 56.3407C40.5075 57.2478 41.7564 57.7527 43.055 57.7458C44.3535 57.7388 45.5969 57.2206 46.5152 56.3036C47.4335 55.3867 47.9526 54.145 47.9597 52.8481C47.9669 51.5513 47.4615 50.304 46.5534 49.377L37.5318 40.3672Z" fill="#ABABAB"/>
<path d="M37.5308 40.3671C37.0747 39.9017 36.5306 39.5313 35.9302 39.2772C35.3298 39.0231 34.6849 38.8905 34.0328 38.887C33.3807 38.8835 32.7344 39.0092 32.1313 39.2569C31.5282 39.5045 30.9803 39.8691 30.5192 40.3296C30.0582 40.7902 29.6931 41.3374 29.4453 41.9398C29.1974 42.5421 29.0716 43.1876 29.0752 43.8388C29.0788 44.49 29.2117 45.1341 29.4662 45.7337C29.7206 46.3333 30.0917 46.8765 30.5578 47.3319L34.0448 50.8143L37.5317 47.3319C37.9897 46.8746 38.353 46.3317 38.6008 45.7341C38.8486 45.1366 38.9761 44.4961 38.976 43.8493C38.9759 43.2025 38.8483 42.5621 38.6003 41.9647C38.3523 41.3672 37.9889 40.8243 37.5308 40.3671Z" fill="#ABABAB"/>
</g>
<defs>
<clipPath id="clip0">
<rect width="141" height="68" fill="white"/>
</clipPath>
</defs>
</svg>
