<svg xmlns="http://www.w3.org/2000/svg" xmlns:xlink="http://www.w3.org/1999/xlink" width="83.926" height="81.566" viewBox="0 0 83.926 81.566"><defs><linearGradient id="a" x1="0.189" y1="0.383" x2="1.412" y2="1.433" gradientUnits="objectBoundingBox"><stop offset="0" stop-color="#c08f83"/><stop offset="1" stop-color="#8b5f5e"/></linearGradient><linearGradient id="b" x1="-0.725" y1="-0.333" x2="4.127" y2="3.666" xlink:href="#a"/><linearGradient id="c" x1="-2.446" y1="-0.912" x2="4.775" y2="3.087" xlink:href="#a"/><linearGradient id="d" x1="-2.904" y1="-1.547" x2="3.483" y2="2.453" xlink:href="#a"/><linearGradient id="e" x1="-3.475" y1="-2.201" x2="2.411" y2="1.799" xlink:href="#a"/><linearGradient id="f" x1="-3.64" y1="-2.737" x2="1.212" y2="1.263" xlink:href="#a"/></defs><path d="M1989.6,1316.4a11.448,11.448,0,0,0-2.4.261l-3.108-7.512h0l-9.379-22.676a1.77,1.77,0,0,0-3.271,0l-10.236,24.746h0l-2.354,5.69a11.453,11.453,0,0,0-7.428,21.658,1.369,1.369,0,0,0,1.749-.758l7.117-17.206c.1.068.2.139.3.212l22.257,16.28a11.45,11.45,0,1,0,6.753-20.7Zm-38.417,19.039a8.713,8.713,0,0,1,6.613-15.982Zm10.169-17.407,3.373-8.155h0l2.647-6.4,11.212,27.1-16.374-11.977Q1961.786,1318.293,1961.348,1318.028Zm23.115,16.851-1.63-1.193-13.982-33.8,4.22-10.2,8.632,20.869h0l10.578,25.571a8.685,8.685,0,0,1-7.818-1.246Zm10.263-.012-6.461-15.62a8.82,8.82,0,0,1,1.344-.112,8.7,8.7,0,0,1,5.117,15.731Z" transform="translate(-1931.074 -1285.376)" fill="url(#a)"/><g transform="translate(0 67.405)"><path d="M1698.172,2599.315l-6.17,14.161h2.171l1.421-3.336h7.216l1.422,3.336h2.151l-6.15-14.161Zm1.021,2.33c.019.046.039.092.06.139l2.76,6.473h-5.621l2.741-6.471C1699.153,2601.738,1699.174,2601.691,1699.193,2601.645Z" transform="translate(-1692.002 -2599.315)" fill="url(#b)"/><path d="M2081.231,2599.315h-2v14.161h9.661v-1.922h-7.66Z" transform="translate(-2059.365 -2599.315)" fill="url(#c)"/><path d="M2388.031,2600.277a7.852,7.852,0,0,0-4.223-.962h-4.889v14.161h2v-4.9h2.889a7.851,7.851,0,0,0,4.223-.962,4.625,4.625,0,0,0,0-7.341Zm-.209,3.67c0,1.875-1.214,2.711-3.935,2.711h-2.968v-5.421h2.968a5.753,5.753,0,0,1,2.819.537A2.282,2.282,0,0,1,2387.822,2603.947Z" transform="translate(-2343.68 -2599.315)" fill="url(#d)"/><path d="M2720,2605.415h-7.85v-6.1h-2v14.161h2v-6.139H2720v6.139h2v-14.161h-2Z" transform="translate(-2657.915 -2599.315)" fill="url(#e)"/><path d="M3055.9,2599.315h-2.06l-6.171,14.161h2.171l1.421-3.336h7.217l1.421,3.336h2.151Zm-1.04,2.33c.019.046.039.092.06.139l2.76,6.473h-5.621l2.74-6.471C3054.821,2601.738,3054.84,2601.691,3054.86,2601.645Z" transform="translate(-2978.124 -2599.315)" fill="url(#f)"/></g></svg>