<svg xmlns="http://www.w3.org/2000/svg" width="64.999" height="76.659" viewBox="0 0 64.999 76.659"><path d="M182.511,229.89H138.492A4.5,4.5,0,0,0,134,234.382v15.272a1.5,1.5,0,0,0,2.994,0V234.382a1.5,1.5,0,0,1,1.5-1.5h44.019a1.5,1.5,0,0,1,1.5,1.5v55.7a1.5,1.5,0,0,1-1.5,1.5H138.492a1.5,1.5,0,0,1-1.5-1.5v-27.8a1.5,1.5,0,1,0-2.994,0v27.8a4.5,4.5,0,0,0,4.492,4.492h44.019A4.5,4.5,0,0,0,187,290.079v-55.7a4.5,4.5,0,0,0-4.492-4.492Zm0,0" transform="translate(-134 -229.89)" fill="#446a82"/><path d="M136.555,355.413a1.5,1.5,0,1,0,.439,1.059,1.506,1.506,0,0,0-.439-1.059Zm0,0" transform="translate(-134 -330.005)" fill="#446a82"/><path d="M166.6,569.375a1.5,1.5,0,1,0,.438,1.059,1.507,1.507,0,0,0-.438-1.059Zm0,0" transform="translate(-158.045 -501.252)" fill="#446a82"/><path d="M239.563,259.937a1.5,1.5,0,0,0-1.5,1.5v58.692a1.5,1.5,0,0,1-1.5,1.5H195.544a1.5,1.5,0,0,0,0,2.995h41.025a4.5,4.5,0,0,0,4.492-4.492V261.434a1.5,1.5,0,0,0-1.5-1.5Zm0,0" transform="translate(-182.06 -253.939)" fill="#446a82"/><path d="M245.6,289.89a1.5,1.5,0,0,0-1.5,1.5v58.692a1.5,1.5,0,0,1-1.5,1.5H195.591a1.5,1.5,0,0,0,0,2.995H242.6a4.5,4.5,0,0,0,4.492-4.492V291.387a1.5,1.5,0,0,0-1.5-1.5Zm0,0" transform="translate(-182.097 -277.912)" fill="#446a82"/><path d="M191.871,285.39H177.5a1.5,1.5,0,0,0-1.5,1.5v14.374a1.5,1.5,0,0,0,1.5,1.5h14.374a1.5,1.5,0,0,0,1.5-1.5V286.887a1.5,1.5,0,0,0-1.5-1.5Zm-1.5,14.374H178.994V288.384h11.379Zm0,0" transform="translate(-167.615 -274.31)" fill="#446a82"/><path d="M189.253,404.683a1.5,1.5,0,0,0-2.117,0l-3.98,3.98-1.85-1.85a1.5,1.5,0,0,0-2.118,2.117l2.91,2.909a1.5,1.5,0,0,0,2.118,0l5.038-5.039a1.5,1.5,0,0,0,0-2.117Zm0,0" transform="translate(-169.815 -369.438)" fill="#446a82"/><path d="M278.215,416.64H260.747a1.5,1.5,0,1,0,0,2.994h17.468a1.5,1.5,0,0,0,0-2.994Zm0,0" transform="translate(-234.246 -379.359)" fill="#446a82"/><path d="M301.978,285.39H291.5a1.5,1.5,0,0,0,0,2.995h10.481a1.5,1.5,0,0,0,0-2.995Zm0,0" transform="translate(-258.857 -274.31)" fill="#446a82"/><path d="M301.978,321.39H291.5a1.5,1.5,0,1,0,0,2.995h10.481a1.5,1.5,0,0,0,0-2.995Zm0,0" transform="translate(-258.857 -303.124)" fill="#446a82"/><path d="M301.978,357.39H291.5a1.5,1.5,0,0,0,0,2.995h10.481a1.5,1.5,0,1,0,0-2.995Zm0,0" transform="translate(-258.857 -331.937)" fill="#446a82"/><path d="M189.253,461.959a1.5,1.5,0,0,0-2.117,0l-3.98,3.98-1.85-1.851a1.5,1.5,0,0,0-2.118,2.118l2.91,2.909a1.5,1.5,0,0,0,2.118,0l5.038-5.038a1.5,1.5,0,0,0,0-2.117Zm0,0" transform="translate(-169.815 -415.279)" fill="#446a82"/><path d="M278.215,473.64H260.747a1.5,1.5,0,0,0,0,2.995h17.468a1.5,1.5,0,0,0,0-2.995Zm0,0" transform="translate(-234.246 -424.979)" fill="#446a82"/></svg>