<svg xmlns="http://www.w3.org/2000/svg" width="64.999" height="72.882" viewBox="0 0 64.999 72.882"><path d="M174.1,292.284C180.24,282.1,188,267.772,188,260.409a22.519,22.519,0,1,0-45.039,0c0,7.363,7.765,21.686,13.907,31.874-7.288.551-23.873,2.529-23.873,9.089,0,6.454,16.838,9.4,32.5,9.4s32.5-2.945,32.5-9.4c-.015-6.56-16.614-8.538-23.9-9.089Zm-28.023-31.874a19.418,19.418,0,1,1,38.836,0c0,9.356-14.9,32.826-19.425,39.728-4.522-6.9-19.411-30.372-19.411-39.728Zm19.411,47.254c-19.024,0-29.391-4.165-29.391-6.307,0-1.651,6.842-5.206,22.608-6.113,2.96,4.774,5.206,8.151,5.5,8.553a1.587,1.587,0,0,0,2.573,0c.313-.372,2.544-3.778,5.5-8.553,15.766.907,22.608,4.448,22.608,6.113-.015,2.157-10.381,6.307-29.405,6.307Zm0,0" transform="translate(-133 -237.89)" fill="#446a82"/><path d="M266.979,311.817a9.8,9.8,0,1,0-9.8,9.8,9.8,9.8,0,0,0,9.8-9.8Zm-16.51,0a6.708,6.708,0,1,1,6.708,6.708,6.709,6.709,0,0,1-6.708-6.708Zm0,0" transform="translate(-224.692 -289.298)" fill="#446a82"/></svg>