<svg xmlns="http://www.w3.org/2000/svg" width="68.293" height="68.293" viewBox="0 0 68.293 68.293"><path d="M442.353,306.691a4.553,4.553,0,1,0,4.553,4.552,4.557,4.557,0,0,0-4.553-4.552Zm0,6.829a2.276,2.276,0,1,1,2.277-2.277,2.278,2.278,0,0,1-2.277,2.277Zm0,0" transform="translate(-378.614 -293.032)" fill="#446a82"/><path d="M109.553,517.89a4.553,4.553,0,1,0,4.552,4.553,4.557,4.557,0,0,0-4.552-4.553Zm0,6.829a2.276,2.276,0,1,1,2.276-2.276,2.278,2.278,0,0,1-2.276,2.276Zm0,0" transform="translate(-105 -466.67)" fill="#446a82"/><path d="M398.05,292.339l-9.82-4.741a1.138,1.138,0,0,0-.989,2.05l9.82,4.741a1.138,1.138,0,0,0,.989-2.05Zm0,0" transform="translate(-336.516 -277.241)" fill="#446a82"/><path d="M371.951,562.691a4.553,4.553,0,1,0,4.553,4.552,4.558,4.558,0,0,0-4.553-4.552Zm0,6.829a2.276,2.276,0,1,1,2.277-2.277,2.279,2.279,0,0,1-2.277,2.277Zm0,0" transform="translate(-320.732 -503.504)" fill="#446a82"/><path d="M327.648,548.338l-9.819-4.741a1.138,1.138,0,1,0-.989,2.05l9.819,4.741a1.138,1.138,0,1,0,.989-2.05Zm0,0" transform="translate(-278.636 -487.712)" fill="#446a82"/><path d="M275.951,402.691a4.553,4.553,0,1,0,4.553,4.552,4.558,4.558,0,0,0-4.553-4.552Zm0,6.829a2.277,2.277,0,1,1,2.277-2.277,2.279,2.279,0,0,1-2.277,2.277Zm0,0" transform="translate(-241.805 -371.959)" fill="#446a82"/><path d="M242.38,383.213l-7.543-5.879a1.138,1.138,0,0,0-1.4,1.8l7.542,5.879a1.139,1.139,0,0,0,1.4-1.8Zm0,0" transform="translate(-210.234 -350.915)" fill="#446a82"/><path d="M354.321,396.288a12.52,12.52,0,1,0,12.521,12.521,12.535,12.535,0,0,0-12.521-12.521Zm0,22.764a10.244,10.244,0,1,1,10.244-10.243,10.255,10.255,0,0,1-10.244,10.243Zm0,0" transform="translate(-299.687 -366.695)" fill="#446a82"/><path d="M391.154,421.89a4.553,4.553,0,1,0,4.553,4.553,4.557,4.557,0,0,0-4.553-4.553Zm0,6.829a2.276,2.276,0,1,1,2.277-2.276,2.279,2.279,0,0,1-2.277,2.276Zm0,0" transform="translate(-336.52 -387.744)" fill="#446a82"/><path d="M383.932,485.89h-6.6a3.485,3.485,0,0,0-3.527,3.432v3a1.139,1.139,0,0,0,.568.985,12.456,12.456,0,0,0,12.523,0,1.137,1.137,0,0,0,.568-.984v-3a3.485,3.485,0,0,0-3.528-3.433Zm1.251,5.754a10.32,10.32,0,0,1-9.106,0v-2.321a1.208,1.208,0,0,1,1.251-1.156h6.6a1.208,1.208,0,0,1,1.251,1.156Zm0,0" transform="translate(-325.996 -440.361)" fill="#446a82"/><path d="M200.72,473.089a12.52,12.52,0,1,0,12.52,12.521,12.536,12.536,0,0,0-12.52-12.521Zm0,22.764a10.244,10.244,0,1,1,10.243-10.243,10.255,10.255,0,0,1-10.243,10.243Zm0,0" transform="translate(-173.402 -429.837)" fill="#446a82"/><path d="M237.553,498.691a4.553,4.553,0,1,0,4.552,4.552,4.557,4.557,0,0,0-4.552-4.552Zm0,6.829a2.277,2.277,0,1,1,2.276-2.277,2.278,2.278,0,0,1-2.276,2.277Zm0,0" transform="translate(-210.236 -450.886)" fill="#446a82"/><path d="M230.331,562.691h-6.6a3.485,3.485,0,0,0-3.528,3.432v3a1.138,1.138,0,0,0,.568.986,12.455,12.455,0,0,0,12.522,0,1.136,1.136,0,0,0,.568-.984v-3a3.485,3.485,0,0,0-3.527-3.433Zm1.25,5.754a10.322,10.322,0,0,1-9.105,0v-2.321a1.208,1.208,0,0,1,1.25-1.156h6.6a1.208,1.208,0,0,1,1.251,1.156Zm0,0" transform="translate(-199.711 -503.504)" fill="#446a82"/><path d="M117.52,313.089a12.52,12.52,0,1,0,12.521,12.521,12.536,12.536,0,0,0-12.521-12.521Zm0,22.764a10.244,10.244,0,1,1,10.244-10.243,10.255,10.255,0,0,1-10.244,10.243Zm0,0" transform="translate(-105 -298.292)" fill="#446a82"/><path d="M154.353,338.691a4.553,4.553,0,1,0,4.553,4.552,4.557,4.557,0,0,0-4.553-4.552Zm0,6.829a2.276,2.276,0,1,1,2.277-2.277,2.278,2.278,0,0,1-2.277,2.277Zm0,0" transform="translate(-141.833 -319.341)" fill="#446a82"/><path d="M147.131,402.691h-6.6A3.485,3.485,0,0,0,137,406.123v3a1.138,1.138,0,0,0,.568.986,12.455,12.455,0,0,0,12.522,0,1.136,1.136,0,0,0,.568-.984v-3a3.485,3.485,0,0,0-3.528-3.433Zm1.251,5.753a10.322,10.322,0,0,1-9.106,0v-2.321a1.207,1.207,0,0,1,1.25-1.156h6.6a1.208,1.208,0,0,1,1.251,1.156Zm0,0" transform="translate(-131.309 -371.959)" fill="#446a82"/><path d="M271.122,229.89a12.52,12.52,0,1,0,12.521,12.52,12.535,12.535,0,0,0-12.521-12.52Zm0,22.764a10.244,10.244,0,1,1,10.244-10.244,10.255,10.255,0,0,1-10.244,10.244Zm0,0" transform="translate(-231.285 -229.89)" fill="#446a82"/><path d="M307.954,255.492a4.553,4.553,0,1,0,4.553,4.552,4.557,4.557,0,0,0-4.553-4.552Zm0,6.829a2.277,2.277,0,1,1,2.277-2.277,2.279,2.279,0,0,1-2.277,2.277Zm0,0" transform="translate(-268.117 -250.939)" fill="#446a82"/><path d="M300.733,319.492h-6.6a3.484,3.484,0,0,0-3.527,3.431v3a1.139,1.139,0,0,0,.568.986,12.456,12.456,0,0,0,12.523,0,1.137,1.137,0,0,0,.568-.985v-3a3.484,3.484,0,0,0-3.527-3.432Zm1.251,5.753a10.324,10.324,0,0,1-9.106,0v-2.321a1.208,1.208,0,0,1,1.251-1.156h6.6a1.208,1.208,0,0,1,1.251,1.156v2.321Zm0,0" transform="translate(-257.594 -303.557)" fill="#446a82"/><path d="M224.144,294.288a1.14,1.14,0,0,0-1.6-.124l-7.888,6.75a1.138,1.138,0,1,0,1.479,1.729l7.888-6.75a1.138,1.138,0,0,0,.126-1.6Zm0,0" transform="translate(-194.822 -282.508)" fill="#446a82"/><path d="M369.877,354.658l-6.829-9.105a1.138,1.138,0,0,0-1.822,1.365l6.83,9.106a1.138,1.138,0,0,0,1.821-1.365Zm0,0" transform="translate(-315.47 -324.608)" fill="#446a82"/><path d="M319.531,485.75a1.139,1.139,0,0,0-1.594-.228l-6.358,4.768a1.138,1.138,0,1,0,1.366,1.82l6.358-4.768a1.136,1.136,0,0,0,.228-1.592Zm0,0" transform="translate(-274.465 -439.872)" fill="#446a82"/><path d="M152.5,537.089h-7.968a1.138,1.138,0,1,0,0,2.277H152.5a1.138,1.138,0,0,0,0-2.277Zm0,0" transform="translate(-136.569 -482.455)" fill="#446a82"/><path d="M154.353,229.89a4.553,4.553,0,1,0,4.553,4.553,4.557,4.557,0,0,0-4.553-4.553Zm0,6.829a2.276,2.276,0,1,1,2.277-2.276,2.278,2.278,0,0,1-2.277,2.276Zm0,0" transform="translate(-141.833 -229.89)" fill="#446a82"/><path d="M170.138,268.288A1.138,1.138,0,0,0,169,269.427v7.967a1.138,1.138,0,1,0,2.277,0v-7.967a1.138,1.138,0,0,0-1.139-1.139Zm0,0" transform="translate(-157.618 -261.459)" fill="#446a82"/></svg>